<svg width="50" height="50" viewBox="0 0 50 50" fill="none" xmlns="http://www.w3.org/2000/svg">
<g clip-path="url(#clip0_5_140)">
<path d="M19.0405 31.8877H18.3787L18.8467 31.4197C20.0313 30.2345 20.0313 28.3061 18.8467 27.1211C18.8429 27.1175 18.8392 27.1138 18.8354 27.11C17.6494 25.9357 15.7292 25.9395 14.5475 27.121L14.0797 27.5888V26.9274C14.0797 25.2513 12.716 23.8876 11.0399 23.8876C9.36365 23.8876 7.99996 25.2512 7.99996 26.9274V27.5887L7.53223 27.1209C6.34698 25.9361 4.41854 25.9363 3.23339 27.1211C2.04847 28.3062 2.04836 30.2348 3.23339 31.4201L3.70101 31.8878H3.03958C1.36358 31.8877 0 33.2514 0 34.9275C0 36.6036 1.36358 37.9673 3.0398 37.9673H3.70123L3.23339 38.4351C2.04836 39.6201 2.04836 41.5486 3.23328 42.7338C3.23771 42.7383 3.24224 42.7427 3.24678 42.7471C4.43281 43.9188 6.3514 43.9147 7.53245 42.734L8.00007 42.2664V42.9279C8.00007 44.6039 9.36387 45.9676 11.0401 45.9676C12.7161 45.9676 14.0797 44.604 14.0797 42.9279V42.2663L14.5475 42.7342C15.7329 43.9191 17.6614 43.919 18.8465 42.7338C20.0315 41.5487 20.0315 39.6202 18.8465 38.4351L18.3785 37.9673H19.0404C20.7164 37.9673 22.08 36.6036 22.08 34.9274C22.0801 33.2513 20.7166 31.8877 19.0405 31.8877ZM19.0405 35.976H17.2606C16.8303 35.976 16.4486 36.2524 16.3145 36.6614C16.2283 36.9245 16.1209 37.1834 15.9956 37.4309C15.8011 37.815 15.8756 38.2804 16.1799 38.5848L17.4385 39.8433C17.8473 40.252 17.8473 40.9172 17.4385 41.326C17.0296 41.7348 16.3643 41.7348 15.9556 41.326L14.6972 40.0675C14.3928 39.7633 13.9278 39.6888 13.5438 39.8831C13.2958 40.0085 13.0368 40.1159 12.7738 40.2021C12.365 40.3363 12.0886 40.7179 12.0886 41.1482V42.928C12.0886 43.5061 11.6182 43.9764 11.0401 43.9764C10.4618 43.9764 9.99146 43.5061 9.99146 42.928V41.1481C9.99146 40.7179 9.71522 40.3364 9.30657 40.2021C9.04317 40.1156 8.78408 40.0083 8.5365 39.883C8.39379 39.8109 8.24002 39.7758 8.08736 39.7758C7.82915 39.7758 7.57427 39.8761 7.38311 40.0674L6.12473 41.3258C5.71585 41.7345 5.05055 41.7348 4.64178 41.3259C4.63924 41.3235 4.6368 41.3209 4.63426 41.3185C4.2329 40.9089 4.23534 40.2494 4.64156 39.8432L5.90027 38.5843C6.2046 38.2799 6.27894 37.8143 6.08435 37.4303C5.9599 37.1845 5.85248 36.9255 5.76541 36.6607C5.63111 36.2521 5.24967 35.976 4.81956 35.976H3.0398C2.46166 35.976 1.99128 35.5055 1.99128 34.9274C1.99128 34.3492 2.46155 33.8789 3.0398 33.8789H4.81956C5.24945 33.8789 5.63078 33.603 5.7653 33.1946C5.85237 32.9301 5.95978 32.671 6.08468 32.4243C6.27894 32.0403 6.2046 31.5749 5.90038 31.2707L4.64189 30.012C4.23301 29.6031 4.23301 28.9377 4.64178 28.5289C5.05066 28.1205 5.71574 28.1203 6.12451 28.5289L7.38322 29.7878C7.68755 30.0921 8.15296 30.1665 8.53705 29.9719C8.78331 29.8473 9.04228 29.74 9.30679 29.653C9.71533 29.5187 9.99146 29.1373 9.99146 28.7072V26.9272C9.99146 26.349 10.462 25.8787 11.0402 25.8787C11.6182 25.8787 12.0885 26.349 12.0885 26.9272V28.7069C12.0885 29.137 12.3646 29.5185 12.7732 29.6528C13.0368 29.7394 13.2959 29.8469 13.5431 29.9721C13.927 30.1662 14.3924 30.0922 14.6967 29.7878L15.9556 28.5289C16.3645 28.1203 17.0296 28.1201 17.4383 28.5287C17.4404 28.5309 17.4425 28.5329 17.4446 28.535C17.8472 28.9443 17.8452 29.6051 17.4385 30.0118L16.1799 31.2705C15.8756 31.5749 15.8013 32.0403 15.9957 32.4243C16.1206 32.671 16.228 32.9301 16.3149 33.1943C16.4492 33.6028 16.8306 33.8789 17.2607 33.8789H19.0406C19.6186 33.8789 20.0889 34.3493 20.0889 34.9276C20.0888 35.5056 19.6185 35.976 19.0405 35.976ZM41.7 26.5016C41.1501 26.5016 40.7044 26.0559 40.7044 25.506V14.0697C40.7044 13.6136 40.3333 13.2426 39.8773 13.2426H38.0544C37.5045 13.2426 37.0588 12.7968 37.0588 12.2469C37.0588 11.697 37.5045 11.2513 38.0544 11.2513H39.8773C41.4313 11.2513 42.6957 12.5156 42.6957 14.0697V25.506C42.6957 26.0559 42.2499 26.5016 41.7 26.5016ZM11.0402 31.6365C9.22548 31.6365 7.74906 33.113 7.74906 34.9277C7.74906 36.7423 9.22548 38.2187 11.0402 38.2187C12.8549 38.2187 14.3312 36.7423 14.3312 34.9277C14.3312 33.113 12.8549 31.6365 11.0402 31.6365ZM11.0402 36.2274C10.3234 36.2274 9.74034 35.6443 9.74034 34.9277C9.74034 34.211 10.3234 33.6278 11.0402 33.6278C11.7569 33.6278 12.34 34.2109 12.34 34.9277C12.34 35.6444 11.7568 36.2274 11.0402 36.2274ZM32.9644 0.850281H26.6432C26.0933 0.850281 25.6476 1.296 25.6476 1.84592V43.7394C25.6476 44.2893 26.0933 44.7351 26.6432 44.7351H32.9644C33.5143 44.7351 33.96 44.2893 33.96 43.7394V1.84592C33.96 1.296 33.5143 0.850281 32.9644 0.850281ZM31.9688 42.7438H27.6388V37.7526H28.9802C29.5301 37.7526 29.9758 37.3069 29.9758 36.757C29.9758 36.2071 29.5301 35.7614 28.9802 35.7614H27.6388V30.7705H28.9802C29.5301 30.7705 29.9758 30.3247 29.9758 29.7748C29.9758 29.2249 29.5301 28.7792 28.9802 28.7792H27.6388V23.7884H28.9802C29.5301 23.7884 29.9758 23.3427 29.9758 22.7927C29.9758 22.2428 29.5301 21.7971 28.9802 21.7971H27.6388V16.8062H28.9802C29.5301 16.8062 29.9758 16.3605 29.9758 15.8105C29.9758 15.2606 29.5301 14.8149 28.9802 14.8149H27.6388V9.82387H28.9802C29.5301 9.82387 29.9758 9.37815 29.9758 8.82823C29.9758 8.2783 29.5301 7.83259 28.9802 7.83259H27.6388V2.84156H31.9688V42.7438ZM50 4.89169V40.6934C50 41.2434 49.5543 41.6891 49.0044 41.6891H43.2358C42.6859 41.6891 42.2402 41.2434 42.2402 40.6934C42.2402 40.1435 42.6859 39.6978 43.2358 39.6978H48.0087V5.88733H37.5965C37.0466 5.88733 36.6009 5.44161 36.6009 4.89169C36.6009 4.34177 37.0466 3.89605 37.5965 3.89605H49.0044C49.5542 3.89605 50 4.34188 50 4.89169ZM39.0501 47.9776V48.1541C39.0501 48.704 38.6044 49.1497 38.0544 49.1497C37.5045 49.1497 37.0588 48.704 37.0588 48.1541V47.9776C37.0588 47.4277 37.5045 46.982 38.0544 46.982C38.6044 46.982 39.0501 47.4277 39.0501 47.9776ZM39.0501 15.8832V44.7514C39.0501 45.3014 38.6044 45.7471 38.0544 45.7471C37.5045 45.7471 37.0588 45.3014 37.0588 44.7514V15.8832C37.0588 15.3333 37.5045 14.8876 38.0544 14.8876C38.6044 14.8876 39.0501 15.3333 39.0501 15.8832ZM22.3289 3.89605C22.3289 3.89605 13.4888 3.89638 13.4686 3.89749C13.2469 3.90899 13.0444 3.99296 12.8843 4.12615C12.8842 4.12627 12.884 4.12649 12.8838 4.1266C12.8833 4.12704 12.8828 4.12748 12.8824 4.12781C12.8819 4.12826 12.8815 4.12859 12.881 4.12892C12.8808 4.12914 12.8806 4.12936 12.8804 4.12947C12.8798 4.13003 12.8791 4.13058 12.8785 4.13113V4.13124C12.8574 4.14905 3.90534 13.0994 3.90534 13.0994C3.73354 13.2708 3.62402 13.5044 3.61351 13.7637C3.61284 13.7798 3.61273 22.1191 3.61273 22.1191C3.61273 22.669 4.05845 23.1148 4.60837 23.1148C5.1583 23.1148 5.60401 22.669 5.60401 22.1191V14.8001H13.521C14.0709 14.8001 14.5166 14.3544 14.5166 13.8044V5.88733H22.3289C22.8788 5.88733 23.3245 5.44161 23.3245 4.89169C23.3245 4.34177 22.8788 3.89605 22.3289 3.89605ZM12.5255 12.8088H7.01218L12.5255 7.29538V12.8088Z" fill="#0FB8EE"/>
</g>
<defs>
<clipPath id="clip0_5_140">
<rect width="50" height="50" fill="white"/>
</clipPath>
</defs>
</svg>
