<svg width="50" height="50" viewBox="0 0 50 50" fill="none" xmlns="http://www.w3.org/2000/svg">
<path d="M25.7812 12.5C25.7812 12.2928 25.6989 12.0941 25.5524 11.9476C25.4059 11.8011 25.2072 11.7188 25 11.7188C24.7928 11.7188 24.5941 11.8011 24.4476 11.9476C24.3011 12.0941 24.2188 12.2928 24.2188 12.5V15.625H25.7812V12.5Z" fill="#0FB8EE"/>
<path d="M45.3125 25H43.6172C43.7017 24.748 43.7465 24.4845 43.75 24.2187V17.9688C43.7777 17.3778 43.5707 16.7998 43.1741 16.3608C42.7775 15.9218 42.2235 15.6573 41.6328 15.625H34.375V21.875H35.1562V25H33.5938V23.4375H32.0312V25H30.4688V15.625H25.7812V19.5313H26.5625V21.875H27.3438V25H25.7812V23.4375H24.2188V25H22.6562V19.5313H24.2188V15.625H21.875C21.8552 15.995 21.7949 16.3618 21.6953 16.7187C21.4902 17.4859 21.1205 18.1992 20.6118 18.809C20.1032 19.4188 19.4679 19.9105 18.75 20.25V25H17.1875V19.9062L17.1016 19.2734L17.6953 19C18.2983 18.7882 18.8401 18.4318 19.2733 17.9619C19.7064 17.4919 20.0177 16.9229 20.1797 16.3047C20.2442 16.0826 20.2887 15.8551 20.3125 15.625H21.875C21.875 15.5 21.875 15.3828 21.875 15.2578C21.8761 14.2021 21.5752 13.1681 21.0076 12.278C20.44 11.3878 19.6295 10.6787 18.6719 10.2344L17.9688 9.92188L17.0937 11.7188H15.7188L14.8438 9.92188L14.1563 10.2344C13.1957 10.6765 12.382 11.3846 11.8115 12.2749C11.241 13.1652 10.9377 14.2004 10.9375 15.2578C10.9375 15.3828 10.9375 15.5 10.9375 15.625H12.5C12.5187 15.8495 12.5579 16.0718 12.6172 16.2891C12.7769 16.9101 13.0872 17.4823 13.5204 17.9551C13.9537 18.4279 14.4967 18.7868 15.1016 19L15.6016 19.1875V19.7344C15.6016 19.7969 15.6016 19.8516 16.3828 19.9062V25H14.0625V20.25C13.3458 19.9071 12.7125 19.4121 12.2066 18.7996C11.7006 18.1871 11.3342 17.4716 11.1328 16.7031C11.0304 16.3515 10.9649 15.9902 10.9375 15.625H6.80469C6.21396 15.6573 5.65996 15.9218 5.26339 16.3608C4.86682 16.7998 4.65982 17.3778 4.6875 17.9688V24.2187C4.69099 24.4845 4.7358 24.748 4.82031 25H4.6875C3.375 25 2.34375 25.7813 2.34375 26.8594V38.7656C2.34375 39.8437 3.375 40.625 4.6875 40.625H45.3125C46.625 40.625 47.6562 39.8437 47.6562 38.7656V26.8594C47.6562 25.8203 46.625 25 45.3125 25ZM10.5469 31.25H9.76562C9.04042 31.25 8.34492 30.9619 7.83213 30.4491C7.31934 29.9363 7.03125 29.2408 7.03125 28.5156C7.03125 28.3084 7.11356 28.1097 7.26007 27.9632C7.40659 27.8167 7.6053 27.7344 7.8125 27.7344C8.0197 27.7344 8.21841 27.8167 8.36493 27.9632C8.51144 28.1097 8.59375 28.3084 8.59375 28.5156C8.59375 28.8264 8.71721 29.1245 8.93698 29.3443C9.15675 29.564 9.45482 29.6875 9.76562 29.6875H10.5469C10.8577 29.6875 11.1557 29.564 11.3755 29.3443C11.5953 29.1245 11.7187 28.8264 11.7188 28.5156C11.7188 28.3084 11.8011 28.1097 11.9476 27.9632C12.0941 27.8167 12.2928 27.7344 12.5 27.7344C12.7072 27.7344 12.9059 27.8167 13.0524 27.9632C13.1989 28.1097 13.2812 28.3084 13.2812 28.5156C13.2812 29.2408 12.9932 29.9363 12.4804 30.4491C11.9676 30.9619 11.2721 31.25 10.5469 31.25ZM16.4062 15.625C16.2517 15.625 16.1007 15.5792 15.9722 15.4933C15.8437 15.4075 15.7436 15.2855 15.6845 15.1427C15.6253 15 15.6099 14.8429 15.64 14.6913C15.6702 14.5398 15.7446 14.4006 15.8538 14.2913C15.9631 14.1821 16.1023 14.1077 16.2538 14.0775C16.4054 14.0474 16.5625 14.0628 16.7052 14.122C16.848 14.1811 16.97 14.2812 17.0558 14.4097C17.1417 14.5382 17.1875 14.6892 17.1875 14.8438C17.1875 15.051 17.1052 15.2497 16.9587 15.3962C16.8122 15.5427 16.6135 15.625 16.4062 15.625ZM39.4531 31.25H38.6719C37.9467 31.25 37.2512 30.9619 36.7384 30.4491C36.2256 29.9363 35.9375 29.2408 35.9375 28.5156C35.9375 28.3084 36.0198 28.1097 36.1663 27.9632C36.3128 27.8167 36.5115 27.7344 36.7188 27.7344C36.926 27.7344 37.1247 27.8167 37.2712 27.9632C37.4177 28.1097 37.5 28.3084 37.5 28.5156C37.5 28.8264 37.6235 29.1245 37.8432 29.3443C38.063 29.564 38.3611 29.6875 38.6719 29.6875H39.4531C39.7639 29.6875 40.062 29.564 40.2818 29.3443C40.5015 29.1245 40.625 28.8264 40.625 28.5156C40.625 28.3084 40.7073 28.1097 40.8538 27.9632C41.0003 27.8167 41.199 27.7344 41.4062 27.7344C41.6135 27.7344 41.8122 27.8167 41.9587 27.9632C42.1052 28.1097 42.1875 28.3084 42.1875 28.5156C42.1875 29.2408 41.8994 29.9363 41.3866 30.4491C40.8738 30.9619 40.1783 31.25 39.4531 31.25Z" fill="#0FB8EE"/>
<path d="M32.0312 21.875H32.8125V15.625H34.375V13.8828C34.6682 13.7703 34.9344 13.5973 35.1562 13.375C35.4841 13.0468 35.7071 12.6286 35.7972 12.1735C35.8872 11.7184 35.8401 11.2468 35.6619 10.8185C35.4837 10.3902 35.1824 10.0244 34.7962 9.7674C34.4099 9.51043 33.9561 9.37387 33.4922 9.37501H27.3438V14.0625H30.4688V15.625H32.0312V21.875ZM32.8125 10.9375H33.4922C33.6994 10.9375 33.8981 11.0198 34.0446 11.1663C34.1911 11.3128 34.2734 11.5116 34.2734 11.7188C34.2751 11.8229 34.2559 11.9263 34.217 12.0229C34.1781 12.1195 34.1202 12.2073 34.0469 12.2813C33.906 12.4172 33.7192 12.4953 33.5234 12.5H32.8125V10.9375Z" fill="#0FB8EE"/>
<path fill-rule="evenodd" clip-rule="evenodd" d="M25.5 27.25C28.9518 27.25 31.75 30.0482 31.75 33.5C31.75 36.9518 28.9518 39.75 25.5 39.75C22.0482 39.75 19.25 36.9518 19.25 33.5C19.25 30.0482 22.0482 27.25 25.5 27.25ZM25.5 28.5C22.7386 28.5 20.5 30.7386 20.5 33.5C20.5 36.2614 22.7386 38.5 25.5 38.5C28.2614 38.5 30.5 36.2614 30.5 33.5C30.5 30.7386 28.2614 28.5 25.5 28.5ZM27.5581 31.1831L24.25 34.4911L23.4419 33.6831C23.1979 33.439 22.8021 33.439 22.5581 33.6831C22.314 33.9271 22.314 34.3229 22.5581 34.5669L23.8081 35.8169C24.0521 36.061 24.4479 36.061 24.6919 35.8169L28.4419 32.0669C28.686 31.8229 28.686 31.4271 28.4419 31.1831C28.1979 30.939 27.8021 30.939 27.5581 31.1831Z" fill="white"/>
</svg>
