<svg width="75" height="75" viewBox="0 0 75 75" fill="none" xmlns="http://www.w3.org/2000/svg">
<g clip-path="url(#clip0_101_32)">
<path d="M49.1277 35.9313L54.4086 30.6503C58.2239 32.1651 62.5297 32.0709 66.2842 30.368C67.206 29.9498 67.4265 28.7395 66.7107 28.0238L57.3064 18.6194C56.1638 17.4769 56.1638 15.6243 57.3064 14.4817L66.701 5.08701C67.4214 4.36654 67.1998 3.1474 66.2715 2.7274C60.6846 0.199503 53.8804 1.23146 49.288 5.82381C44.9745 10.1372 43.8131 16.4469 45.8022 21.8362L40.4174 27.221L49.1277 35.9313Z" fill="#696565"/>
<path d="M39.0364 28.6019L31.7384 21.304L23.0282 30.0143L30.3262 37.3123L39.0363 46.0225L65.7182 72.7043C66.0992 73.0853 66.5987 73.2759 67.098 73.2759C67.5975 73.2759 68.0968 73.0853 68.4779 72.7043L74.4283 66.7539C75.1904 65.9917 75.1904 64.7562 74.4283 63.9942L47.7466 37.3123L39.0364 28.6019Z" fill="#696565"/>
<path d="M70.652 9.99966L62.8498 17.8019C62.226 18.4257 62.226 19.4371 62.8498 20.0608L68.8632 26.0743C69.5346 26.7456 70.6465 26.692 71.2359 25.9478C74.7655 21.4918 75.4335 15.5119 73.2406 10.4787C72.7931 9.4517 71.4441 9.20748 70.652 9.99966Z" fill="#696565"/>
<path d="M10.9073 46.9762L20.3116 56.3805C21.4542 57.5231 21.4542 59.3756 20.3116 60.5182L10.917 69.9129C10.1966 70.6333 10.4182 71.8526 11.3464 72.2725C16.9333 74.8003 23.7375 73.7685 28.3301 69.176C32.628 64.8781 33.7963 58.5983 31.8369 53.2219L37.6554 47.4035L28.9453 38.6934L23.2661 44.3725C19.4368 42.8344 15.1071 42.9206 11.3341 44.632C10.4121 45.0501 10.1916 46.2606 10.9073 46.9762Z" fill="#696565"/>
<path d="M6.38204 49.2082C2.85258 53.6642 2.18453 59.6442 4.37742 64.6773C4.82485 65.7043 6.17383 65.9485 6.96594 65.1564L14.7682 57.3542C15.392 56.7304 15.392 55.719 14.7682 55.0953L8.75477 49.0819C8.08344 48.4105 6.97149 48.464 6.38204 49.2082Z" fill="#EE0F0F"/>
<path d="M10.8476 36.0504C11.7817 36.9844 13.2959 36.9844 14.23 36.0504L14.681 35.5994C15.615 34.6654 15.615 33.1511 14.681 32.2171L13.779 31.3151L15.5549 29.5393L7.21165 21.196L5.43586 22.9718L4.53391 22.0699C3.59985 21.1359 2.08555 21.1359 1.15149 22.0699L0.700548 22.5209C-0.233516 23.455 -0.233516 24.9693 0.700548 25.9032L10.8476 36.0504Z" fill="#696565"/>
<path d="M23.7528 5.15364L31.9916 13.3925C41.4903 7.06364 46.7999 12.3722 39.4977 5.07012C34.4477 0.0199591 28.0707 2.40949 23.7528 5.15364Z" fill="#696565"/>
<path d="M21.2203 5.38316C20.7533 4.91613 20.1412 4.68262 19.5291 4.68262C18.917 4.68262 18.3049 4.91613 17.8379 5.38316L7.69066 15.5304C6.7566 16.4643 6.7566 17.9787 7.69066 18.9128L8.59261 19.8147L16.9358 28.158L17.8378 29.0599C18.3048 29.5269 18.9168 29.7605 19.529 29.7605C19.6769 29.7605 19.8249 29.7465 19.9708 29.7192C20.3125 29.6554 20.6429 29.5167 20.9358 29.3033C21.0351 29.2307 21.1304 29.1498 21.2201 29.0601L21.6468 28.6333L30.357 19.9231L31.0475 19.2326L31.3673 18.9129C31.4947 18.7854 31.6041 18.6469 31.6969 18.5008C32.2833 17.5761 32.1738 16.337 31.3673 15.5304L30.3852 14.5483L22.1128 6.27567L21.2203 5.38316Z" fill="#696565"/>
</g>
<defs>
<clipPath id="clip0_101_32">
<rect width="75" height="75" fill="white"/>
</clipPath>
</defs>
</svg>
