<svg width="75" height="75" viewBox="0 0 75 75" fill="none" xmlns="http://www.w3.org/2000/svg">
<g clip-path="url(#clip0_101_82)">
<path d="M31.6646 63.1868V56.0392H48.5962V59.5639L50.8534 57.216L51.985 56.0392L53.0643 54.9166L52.0088 53.7812H50.8536V52.5386L48.5964 50.1106V53.7812H31.6646V46.3683H45.118L43.0196 44.1114H31.6644V36.2852H40.9197C41.6383 35.1351 42.7874 34.3342 44.0965 34.028H31.6654V25.5626H48.5971V33.8812H50.8539V25.5626H68.2224V33.8812H70.4792V5.18354C70.4792 3.73159 69.2982 2.55054 67.8472 2.55054H2.63284C1.18026 2.55054 0 3.73253 0 5.18354V62.8738C0 63.7641 0.447664 64.5511 1.12823 65.0283V65.4434H2.07244C2.25361 65.4833 2.44 65.5062 2.63284 65.5062H42.8819L45.1128 63.1868H31.6646ZM50.8534 4.80857H67.8453C68.0528 4.80857 68.2229 4.9776 68.2229 5.18527V12.7732H50.8534V4.80857ZM50.8534 15.0298H68.2228V23.3072H50.8534V15.0298ZM31.6646 4.80857H48.5962V12.773H31.6646V4.80857ZM31.6646 15.0298H48.5962V23.3072H31.6646V15.0298ZM10.4079 63.1868H2.43747C2.33135 63.1214 2.25629 63.0086 2.25629 62.8738V56.0392H10.4081L10.4079 63.1868ZM10.4079 53.781H2.25629V46.3692H10.4081L10.4079 53.781ZM10.4079 44.1128H2.25629V36.2873H10.4081L10.4079 44.1128ZM10.4079 34.0297H2.25629V25.5643H10.4081L10.4079 34.0297ZM10.4079 23.3072H2.25629V15.0298H10.4081L10.4079 23.3072ZM29.4069 63.1868H12.6648V56.0392H29.4069V63.1868ZM29.4069 53.781H12.6648V46.3692H29.4069V53.781ZM29.4069 44.1128H12.6648V36.2873H29.4069V44.1128ZM29.4069 34.0297H12.6648V25.5643H29.4069V34.0297ZM29.4069 23.3072H12.6648V15.0298H29.4069V23.3072ZM29.4069 12.7722H12.6648V4.80762H29.4069V12.7722ZM70.9464 44.0842V41.029H51.0906L62.7754 53.5948C63.5066 54.3813 63.4948 55.6049 62.7532 56.3801L51.1996 68.3957H70.9464V66.5513C70.9464 65.4327 71.8542 64.5232 72.9725 64.5232C74.0908 64.5232 75 65.4329 75 66.5513V70.4234C75 71.5409 74.0906 72.4495 72.9725 72.4495H46.4375C45.6246 72.4495 44.8913 71.9666 44.5732 71.2173C44.2545 70.4676 44.4106 69.6041 44.9769 69.0172L58.4987 54.9529L44.9526 40.3831C44.404 39.7929 44.2575 38.9327 44.58 38.1921C44.9026 37.4529 45.63 36.9746 46.4377 36.9746H72.9727C74.091 36.9746 75.0002 37.8841 75.0002 39.0015V44.0836C75.0002 45.2027 74.0908 46.1111 72.9727 46.1111C71.8545 46.1111 70.9464 45.2025 70.9464 44.0842Z" fill="#696565"/>
<rect x="2" y="5" width="8.5" height="8" fill="#EE0F0F"/>
</g>
<defs>
<clipPath id="clip0_101_82">
<rect width="75" height="75" fill="white"/>
</clipPath>
</defs>
</svg>
