<svg width="75" height="75" viewBox="0 0 75 75" fill="none" xmlns="http://www.w3.org/2000/svg">
<g clip-path="url(#clip0_101_124)">
<path d="M37.5 16.4062H42.1875C42.8091 16.4062 43.4052 16.1593 43.8448 15.7198C44.2843 15.2802 44.5312 14.6841 44.5312 14.0625C44.5312 13.4409 44.2843 12.8448 43.8448 12.4052C43.4052 11.9657 42.8091 11.7188 42.1875 11.7188H39.8438C39.8438 11.0971 39.5968 10.501 39.1573 10.0615C38.7177 9.62193 38.1216 9.375 37.5 9.375C36.8784 9.375 36.2823 9.62193 35.8427 10.0615C35.4032 10.501 35.1562 11.0971 35.1562 11.7188V12.1406C33.6062 12.7031 32.3031 13.7924 31.4748 15.2183C30.6464 16.6441 30.3456 18.3157 30.6248 19.9409C30.9041 21.566 31.7456 23.0414 33.0024 24.1089C34.2591 25.1765 35.8511 25.7685 37.5 25.7812C38.1216 25.7812 38.7177 26.0282 39.1573 26.4677C39.5968 26.9073 39.8438 27.5034 39.8438 28.125C39.8438 28.7466 39.5968 29.3427 39.1573 29.7823C38.7177 30.2218 38.1216 30.4688 37.5 30.4688H32.8125C32.1909 30.4688 31.5948 30.7157 31.1552 31.1552C30.7157 31.5948 30.4688 32.1909 30.4688 32.8125C30.4688 33.4341 30.7157 34.0302 31.1552 34.4698C31.5948 34.9093 32.1909 35.1562 32.8125 35.1562H35.1562C35.1562 35.7779 35.4032 36.374 35.8427 36.8135C36.2823 37.2531 36.8784 37.5 37.5 37.5C38.1216 37.5 38.7177 37.2531 39.1573 36.8135C39.5968 36.374 39.8438 35.7779 39.8438 35.1562V34.7344C41.3938 34.1719 42.6969 33.0826 43.5252 31.6567C44.3536 30.2309 44.6544 28.5593 44.3752 26.9341C44.0959 25.309 43.2544 23.8336 41.9976 22.7661C40.7409 21.6985 39.1489 21.1065 37.5 21.0938C36.8784 21.0938 36.2823 20.8468 35.8427 20.4073C35.4032 19.9677 35.1562 19.3716 35.1562 18.75C35.1562 18.1284 35.4032 17.5323 35.8427 17.0927C36.2823 16.6532 36.8784 16.4062 37.5 16.4062Z" fill="#696565"/>
<path d="M72.6562 56.25H65.625V7.03125C65.625 5.16645 64.8842 3.37802 63.5656 2.05941C62.247 0.74079 60.4586 0 58.5938 0L7.03125 0C5.16645 0 3.37802 0.74079 2.05941 2.05941C0.74079 3.37802 0 5.16645 0 7.03125L0 21.0938C0 21.7154 0.24693 22.3115 0.686469 22.751C1.12601 23.1906 1.72215 23.4375 2.34375 23.4375H9.375V67.9688C9.375 69.8336 10.1158 71.622 11.4344 72.9406C12.753 74.2592 14.5414 75 16.4062 75H67.9688C69.8336 75 71.622 74.2592 72.9406 72.9406C74.2592 71.622 75 69.8336 75 67.9688V58.5938C75 57.9721 74.7531 57.376 74.3135 56.9365C73.874 56.4969 73.2779 56.25 72.6562 56.25ZM4.6875 7.03125C4.6875 6.40965 4.93443 5.81351 5.37397 5.37397C5.81351 4.93443 6.40965 4.6875 7.03125 4.6875C7.65285 4.6875 8.24899 4.93443 8.68853 5.37397C9.12807 5.81351 9.375 6.40965 9.375 7.03125V18.75H4.6875V7.03125ZM18.75 58.5938V67.9688C18.7457 68.2805 18.6792 68.5883 18.5544 68.874C18.4297 69.1597 18.2491 69.4177 18.0234 69.6328C17.8157 69.8519 17.5646 70.0255 17.2862 70.1425C17.0078 70.2595 16.7082 70.3174 16.4062 70.3125C15.7846 70.3125 15.1885 70.0656 14.749 69.626C14.3094 69.1865 14.0625 68.5904 14.0625 67.9688V7.03125C14.0562 6.2317 13.9135 5.43908 13.6406 4.6875H58.5938C59.2154 4.6875 59.8115 4.93443 60.251 5.37397C60.6906 5.81351 60.9375 6.40965 60.9375 7.03125V56.25H21.0938C20.4721 56.25 19.876 56.4969 19.4365 56.9365C18.9969 57.376 18.75 57.9721 18.75 58.5938ZM70.3125 67.9688C70.3082 68.2805 70.2417 68.5883 70.1169 68.874C69.9922 69.1597 69.8116 69.4177 69.5859 69.6328C69.3782 69.8519 69.1271 70.0255 68.8487 70.1425C68.5703 70.2595 68.2707 70.3174 67.9688 70.3125H23.0391C23.3039 69.5595 23.4387 68.767 23.4375 67.9688V60.9375H70.3125V67.9688Z" fill="#696565"/>
<path d="M39.8438 44.5312H21.0938C20.4721 44.5312 19.876 44.7782 19.4365 45.2177C18.9969 45.6573 18.75 46.2534 18.75 46.875C18.75 47.4966 18.9969 48.0927 19.4365 48.5323C19.876 48.9718 20.4721 49.2188 21.0938 49.2188H39.8438C40.4654 49.2188 41.0615 48.9718 41.501 48.5323C41.9406 48.0927 42.1875 47.4966 42.1875 46.875C42.1875 46.2534 41.9406 45.6573 41.501 45.2177C41.0615 44.7782 40.4654 44.5312 39.8438 44.5312Z" fill="#EE0F0F"/>
<path d="M53.9062 44.5312H49.2188C48.5971 44.5312 48.001 44.7782 47.5615 45.2177C47.1219 45.6573 46.875 46.2534 46.875 46.875C46.875 47.4966 47.1219 48.0927 47.5615 48.5323C48.001 48.9718 48.5971 49.2188 49.2188 49.2188H53.9062C54.5279 49.2188 55.124 48.9718 55.5635 48.5323C56.0031 48.0927 56.25 47.4966 56.25 46.875C56.25 46.2534 56.0031 45.6573 55.5635 45.2177C55.124 44.7782 54.5279 44.5312 53.9062 44.5312Z" fill="#696565"/>
</g>
<defs>
<clipPath id="clip0_101_124">
<rect width="75" height="75" fill="white"/>
</clipPath>
</defs>
</svg>
