<svg width="97" height="75" viewBox="0 0 97 75" fill="none" xmlns="http://www.w3.org/2000/svg">
<g clip-path="url(#clip0_100_2)">
<path d="M15.9952 13.3931H18.7958V8.0354H10.3933V69.6431H52.3698V64.2854H15.9952V13.3931ZM60.806 29.4646H66.4071V8.0354H58.0054V13.3931H60.806V29.4646ZM29.9981 8.0354H46.8023V13.3923H29.9981V8.0354Z" fill="#696565"/>
<path d="M21.5963 5.35693H27.1975V16.0715H21.5963V5.35693ZM49.6029 5.35693H55.204V16.0715H49.6029V5.35693ZM21.5956 21.4285H55.204V26.7854H21.5956V21.4285ZM21.5956 32.1431H46.8015V37.5H21.5956V32.1431ZM21.5956 42.8569H38.3998V48.2139H21.5956V42.8569ZM67.8077 50.9136V32.1431H53.8041V50.9143H46.8957L60.8059 69.1604L74.7161 50.9143L67.8077 50.9136ZM60.8059 60.0674L57.9119 56.2705H59.4053V37.5H62.2058V56.2712H63.6992L60.8059 60.0674Z" fill="#696565"/>
<g clip-path="url(#clip1_100_2)">
<path fill-rule="evenodd" clip-rule="evenodd" d="M79.5225 10.0522H92.1937C93.9432 10.0522 95.3615 12.3374 95.3615 15.1563V61.0938C95.3615 63.9128 93.9432 66.198 92.1937 66.198H79.5225C77.773 66.198 76.3547 63.9128 76.3547 61.0938V15.1563C76.3547 12.3374 77.773 10.0522 79.5225 10.0522ZM79.5225 15.1563V61.0938H92.1937V15.1563H79.5225ZM84.2742 50.8855V55.9897H79.5225V50.8855H84.2742ZM87.442 40.6772V45.7813H79.5225V40.6772H87.442ZM84.2742 30.4688V35.573H79.5225V30.4688H84.2742ZM87.442 20.2605V25.3647H79.5225V20.2605H87.442Z" fill="#696565"/>
</g>
<rect x="19" y="53" width="8" height="8" fill="#EE0F0F"/>
</g>
<defs>
<clipPath id="clip0_100_2">
<rect width="97" height="75" fill="white"/>
</clipPath>
<clipPath id="clip1_100_2">
<rect width="61.25" height="38.0135" fill="white" transform="matrix(0 -1 1 0 66.8513 68.75)"/>
</clipPath>
</defs>
</svg>
