<svg width="80" height="80" viewBox="0 0 80 80" fill="none" xmlns="http://www.w3.org/2000/svg">
<g clip-path="url(#clip0_113_77)">
<path fill-rule="evenodd" clip-rule="evenodd" d="M72.3072 80H29.232C27.1906 79.9965 25.2341 79.2144 23.7919 77.8253C22.3496 76.4362 21.5394 74.5536 21.5392 72.5908V37.6708L15.2 35.2308C14.7015 35.0352 14.2432 34.756 13.8464 34.4062V71.5231L14.4896 71.7292C15.6537 72.1008 16.6652 72.8177 17.3788 73.777C18.0924 74.7362 18.4712 75.8884 18.4608 77.0677C18.453 77.8473 18.1258 78.5926 17.55 79.1416C16.9742 79.6906 16.1965 79.9991 15.3856 80H7.6928C6.46813 79.9975 5.29451 79.5279 4.42944 78.6944C3.56436 77.8609 3.07848 76.7314 3.0784 75.5538V51.1231C1.184 49.6154 0 47.0892 0 44.4431V26.4338C0.024848 24.9507 0.443972 23.4983 1.21749 22.2149C1.99102 20.9314 3.09321 19.8597 4.4192 19.1015C3.52021 18.4089 2.79464 17.5308 2.29613 16.5322C1.79763 15.5336 1.53894 14.44 1.5392 13.3323V10.3692C1.5392 8.40785 2.34952 6.52681 3.7919 5.1399C5.23428 3.753 7.19057 2.97385 9.2304 2.97385C11.2702 2.97385 13.2265 3.753 14.6689 5.1399C16.1113 6.52681 16.9216 8.40785 16.9216 10.3692V13.3323C16.9211 14.4558 16.6546 15.5644 16.1423 16.5741C15.63 17.5838 14.8853 18.4681 13.9648 19.16C15.0954 19.9058 16.038 20.8857 16.7232 22.0277L20.1216 27.5569L21.5392 28.1015V7.40615C21.5401 5.44379 22.3506 3.56193 23.7928 2.17346C25.235 0.784997 27.1911 0.00334089 29.232 0L72.3072 0C74.3481 0.00334089 76.3042 0.784997 77.7464 2.17346C79.1886 3.56193 79.9991 5.44379 80 7.40615V72.5908C79.9997 74.5536 79.1896 76.4362 77.7473 77.8253C76.3051 79.2144 74.3486 79.9965 72.3072 80ZM13.8464 10.3692C13.8464 9.19208 13.3601 8.06314 12.4944 7.23076C11.6287 6.39839 10.4546 5.93077 9.2304 5.93077C8.00616 5.93077 6.83206 6.39839 5.9664 7.23076C5.10073 8.06314 4.6144 9.19208 4.6144 10.3692V13.3323C4.6144 14.5095 5.10073 15.6384 5.9664 16.4708C6.83206 17.3031 8.00616 17.7708 9.2304 17.7708C10.4546 17.7708 11.6287 17.3031 12.4944 16.4708C13.3601 15.6384 13.8464 14.5095 13.8464 13.3323V10.3692ZM18.0032 29.9323L14.0768 23.5354C12.9696 21.7323 11.248 20.7415 9.232 20.7415C5.8944 20.7415 3.0784 23.3477 3.0784 26.4338V44.4431C3.0784 46.3846 4.0224 48.2615 5.4336 49.1138L6.1536 49.5508V75.5538C6.1536 75.9467 6.31566 76.3234 6.60423 76.6015C6.89279 76.8795 7.28428 77.0361 7.6928 77.0369H15.3856C15.3873 76.4851 15.2079 75.9469 14.8729 75.4988C14.5379 75.0508 14.0645 74.7158 13.52 74.5415L10.768 73.6585V29.6831L8.8 26.3754L11.472 24.9015L15.616 31.8677C15.7853 32.1431 16.0422 32.3588 16.3488 32.4831L24.0448 35.4462C24.2322 35.5181 24.4325 35.5538 24.6343 35.5513C24.8361 35.5488 25.0354 35.5081 25.2208 35.4315C25.4062 35.3549 25.5742 35.244 25.715 35.105C25.8558 34.966 25.9668 34.8018 26.0416 34.6215C26.1164 34.4413 26.1536 34.2487 26.1509 34.0547C26.1483 33.8607 26.106 33.669 26.0263 33.4908C25.9467 33.3125 25.8313 33.151 25.6868 33.0156C25.5423 32.8802 25.3714 32.7735 25.184 32.7015L18.0032 29.9323ZM40.432 2.96308L41.2 5.92615H60.336L61.1072 2.96308H40.432ZM76.9216 7.40615C76.9208 6.22907 76.4346 5.10031 75.5696 4.26741C74.7046 3.4345 73.5314 2.96544 72.3072 2.96308H64.2784L63.3216 6.64308C63.157 7.28463 62.7733 7.85457 62.2321 8.26177C61.6908 8.66896 61.0232 8.88989 60.336 8.88923H41.2032C40.516 8.88989 39.8484 8.66896 39.3071 8.26177C38.7659 7.85457 38.3822 7.28463 38.2176 6.64308L37.2608 2.96308H29.232C28.0073 2.96479 26.8334 3.43354 25.9677 4.2665C25.102 5.09946 24.6153 6.22858 24.6144 7.40615V29.2892L26.3296 29.9508C27.3458 30.3408 28.1842 31.0662 28.6944 31.9969L32.752 30.1938C31.8096 26.5023 32.3785 22.6037 34.3412 19.3041C36.3038 16.0045 39.5101 13.5563 43.297 12.4656C47.084 11.3749 51.162 11.7252 54.6879 13.4439C58.2139 15.1627 60.9181 18.1186 62.2415 21.7004C63.5649 25.2822 63.4062 29.2161 61.7983 32.6886C60.1904 36.1611 57.2562 38.9067 53.6024 40.3578C49.9486 41.8088 45.8546 41.8543 42.1669 40.4849C38.4792 39.1155 35.4798 36.4358 33.7888 33L29.1072 35.0769C28.8723 36.0539 28.3005 36.9256 27.4847 37.5503C26.6689 38.1749 25.6572 38.5156 24.6144 38.5169V65.1846H76.9216V7.40615ZM35.3856 26.6646C35.3888 29.0045 36.1133 31.2909 37.4675 33.235C38.8218 35.179 40.745 36.6934 42.9941 37.5867C45.2432 38.48 47.7173 38.7122 50.1036 38.2538C52.4899 37.7955 54.6814 36.6672 56.4009 35.0116C58.1205 33.356 59.2911 31.2474 59.7647 28.9522C60.2383 26.6571 59.9936 24.2785 59.0616 22.1171C58.1297 19.9556 56.5522 18.1083 54.5286 16.8087C52.5051 15.509 50.1262 14.8154 47.6928 14.8154C44.4278 14.8213 41.2986 16.072 38.9914 18.2934C36.6842 20.5147 35.3875 23.5252 35.3856 26.6646ZM76.9216 68.1477H24.6144V72.5908C24.6147 73.7688 25.101 74.8986 25.9668 75.7322C26.8325 76.5658 28.0068 77.035 29.232 77.0369H72.3072C73.5319 77.0344 74.7055 76.5649 75.5706 75.7313C76.4356 74.8978 76.9215 73.7683 76.9216 72.5908V68.1477ZM49.232 35.5538H46.1536V32.5908H49.232V35.5538Z" fill="black"/>
<path fill-rule="evenodd" clip-rule="evenodd" d="M30.7679 55.9877V53.0246H61.5391V55.9877H30.7679ZM50.7679 50.0616H47.6927V47.0985H50.7679V50.0616ZM46.1535 32.2831H49.2319V35.2462H46.1535V32.2831ZM49.3279 29.1077L49.2319 30.8031H46.1535V29.1293C46.1596 28.4662 46.3945 27.8239 46.8213 27.3032C47.2482 26.7825 47.8429 26.4128 48.5119 26.2523C49.108 26.0943 49.6409 25.7675 50.0411 25.3142C50.4413 24.861 50.6903 24.3024 50.7557 23.7112C50.8212 23.12 50.7 22.5236 50.408 21.9995C50.116 21.4754 49.6666 21.048 49.1185 20.7729C48.5703 20.4979 47.9487 20.3878 47.3346 20.4571C46.7205 20.5265 46.1423 20.7719 45.6753 21.1616C45.2083 21.5513 44.8742 22.0672 44.7163 22.642C44.5585 23.2169 44.5843 23.8241 44.7903 24.3846L41.8879 25.3693C41.4775 24.2489 41.4273 23.0356 41.7438 21.8874C42.0602 20.7392 42.7288 19.7091 43.6625 18.9312C44.5962 18.1534 45.7517 17.6637 46.9788 17.526C48.2058 17.3883 49.4476 17.6088 50.5425 18.159C51.6374 18.7092 52.5347 19.5635 53.1178 20.6107C53.7008 21.658 53.9425 22.8497 53.8115 24.0309C53.6805 25.2121 53.1828 26.328 52.3831 27.2335C51.5835 28.1389 50.5189 28.792 49.3279 29.1077ZM44.6143 50.0616H30.7679V47.0985H44.6143V50.0616ZM43.0783 61.9139H30.7679V58.9508H43.0783V61.9139ZM49.2319 61.9139H46.1535V58.9508H49.2319V61.9139ZM52.3071 58.9508H55.3855V61.9139H52.3071V58.9508ZM52.3071 73.7662H49.2319V70.8031H52.3071V73.7662Z" fill="#0FB8EE"/>
</g>
<defs>
<clipPath id="clip0_113_77">
<rect width="80" height="80" fill="white"/>
</clipPath>
</defs>
</svg>
