<svg width="80" height="80" viewBox="0 0 80 80" fill="none" xmlns="http://www.w3.org/2000/svg">
<g clip-path="url(#clip0_113_107)">
<path fill-rule="evenodd" clip-rule="evenodd" d="M52.4129 10.1212C51.3172 10.1217 50.2663 10.5813 49.4907 11.3993C48.7151 12.2172 48.278 13.3269 48.2753 14.4848H45.5169C45.5169 12.552 46.2434 10.6983 47.5367 9.33154C48.8299 7.9648 50.584 7.19697 52.4129 7.19697C54.2419 7.19697 55.9959 7.9648 57.2892 9.33154C58.5824 10.6983 59.309 12.552 59.309 14.4848C59.309 20.2364 56.1291 23.1697 53.3219 25.7606C50.9276 27.9697 48.823 29.9121 48.367 33.3939H59.309V36.303H45.5169V34.8485C45.5169 29.097 48.6997 26.1606 51.5068 23.5697C54.2136 21.0727 56.5506 18.9152 56.5506 14.4848C56.5484 13.3267 56.1114 12.2167 55.3357 11.3987C54.56 10.5806 53.5088 10.1211 52.4129 10.1212ZM67.8825 7.83333L63.9226 21.7576H70.3455V18.8485H73.104V36.303H70.3455V24.6667H60.2151L65.2416 7L67.8825 7.83333ZM35.5441 59.4788C35.7254 59.5671 35.9287 59.5917 36.1242 59.5492C36.3197 59.5067 36.4973 59.3992 36.6308 59.2424L39.8022 55.2273C40.8347 53.9235 42.2265 52.9929 43.7836 52.5654C45.3406 52.1379 46.9851 52.2347 48.4875 52.8424L63.3119 58.8576C64.1611 59.2047 64.8917 59.8143 65.4083 60.6067C65.9249 61.3991 66.2035 62.3377 66.2079 63.3C66.2083 63.9064 66.0983 64.5072 65.8839 65.0697L62.6409 73.6212C61.9369 75.4916 60.7162 77.0947 59.138 78.2216C57.5597 79.3486 55.6969 79.9471 53.7921 79.9394C22.6237 79.9394 2.12613e-05 56.0848 2.12613e-05 23.2152C-0.0040111 21.2036 0.56562 19.2374 1.63463 17.5731C2.70363 15.9087 4.2224 14.6235 5.99285 13.8848L14.1018 10.4636C15.2255 10.0156 16.4703 10.0487 17.5713 10.5558C18.6723 11.0628 19.5427 12.0039 19.9972 13.1788L25.6975 28.8091C26.2728 30.3942 26.3643 32.1299 25.9591 33.7727C25.5539 35.4155 24.6723 36.8831 23.438 37.9697L19.6301 41.3151C19.5304 41.4016 19.4499 41.5103 19.3944 41.6333C19.3389 41.7564 19.3097 41.8909 19.309 42.0273C19.3096 42.1767 19.343 42.324 19.4065 42.4576C23.4351 51.0939 27.3577 55.2273 35.5441 59.4788ZM17.8638 39.0818L21.6717 35.7333C22.4637 35.0359 23.0294 34.0941 23.2896 33.0399C23.5497 31.9857 23.4914 30.8719 23.1226 29.8545L17.4194 14.2212C17.3365 13.991 17.2109 13.7807 17.05 13.6026C16.8891 13.4244 16.6961 13.282 16.4824 13.1838C16.2687 13.0855 16.0386 13.0334 15.8056 13.0305C15.5726 13.0275 15.3413 13.0738 15.1255 13.1667L10.7756 15.003L13.947 25.5667L11.3176 26.4455L8.20647 16.0848L7.01651 16.5848C5.7582 17.1094 4.67878 18.0227 3.91916 19.2055C3.15955 20.3883 2.75504 21.7856 2.75844 23.2152C2.75844 54.397 24.2208 77.0303 53.7921 77.0303C55.1451 77.0358 56.4682 76.6106 57.5893 75.8101C58.7103 75.0096 59.5774 73.871 60.0774 72.5424L60.5534 71.2849L50.7269 68.003L51.5584 65.2303L61.5828 68.5788L63.3205 63.9909C63.4083 63.7632 63.4521 63.5193 63.4494 63.2734C63.4466 63.0275 63.3972 62.7847 63.3042 62.5594C63.2112 62.334 63.0764 62.1306 62.9078 61.9611C62.7393 61.7917 62.5403 61.6596 62.3226 61.5727L47.4982 55.5606C46.5327 55.1797 45.4796 55.122 44.4819 55.3952C43.4842 55.6684 42.5902 56.2594 41.9212 57.0879L38.7498 61.1061C38.2132 61.7552 37.4913 62.202 36.6931 62.3792C35.8949 62.5563 35.0638 62.454 34.3255 62.0879C25.6115 57.5636 21.2215 52.9364 16.9291 43.7424C16.6813 43.2085 16.5518 42.622 16.5506 42.0273C16.5508 41.4644 16.6686 40.9085 16.8956 40.3994C17.1226 39.8902 17.4532 39.4403 17.8638 39.0818ZM12.2753 29.6394L14.9047 28.7606L15.633 31.1818L13.0036 32.0606L12.2753 29.6394ZM48.5305 64.2212L47.699 66.9939L45.4022 66.2273L46.2337 63.4545L48.5305 64.2212Z" fill="black"/>
<path fill-rule="evenodd" clip-rule="evenodd" d="M77.2416 43.6364H41.3792C40.6487 43.6359 39.9483 43.3294 39.4312 42.7842C38.9142 42.2389 38.6227 41.4992 38.6208 40.7273V39.2727H34.486C33.7578 39.2705 33.0597 38.9652 32.5429 38.423C32.0261 37.8808 31.7322 37.1453 31.7247 36.3758C31.7215 35.9909 31.7917 35.6092 31.9311 35.2536C32.0705 34.898 32.2763 34.5757 32.5362 34.3061L38.6208 27.8879V2.90909C38.6223 2.137 38.9136 1.39707 39.4307 0.851684C39.9479 0.306297 40.6486 -1.66859e-06 41.3792 0L77.2416 0C77.9722 -1.66859e-06 78.6729 0.306297 79.19 0.851684C79.7072 1.39707 79.9985 2.137 80 2.90909V40.7273C79.998 41.4992 79.7066 42.2389 79.1895 42.7842C78.6725 43.3294 77.972 43.6359 77.2416 43.6364ZM77.2416 2.90909H41.3792V29.0939L34.486 36.3636H41.3792V40.7273H77.2416V2.90909Z" fill="#0FB8EE"/>
</g>
<defs>
<clipPath id="clip0_113_107">
<rect width="80" height="80" fill="white"/>
</clipPath>
</defs>
</svg>
