<svg width="80" height="80" viewBox="0 0 80 80" fill="none" xmlns="http://www.w3.org/2000/svg">
<g clip-path="url(#clip0_113_86)">
<path fill-rule="evenodd" clip-rule="evenodd" d="M20.0207 80L19.7373 78.6985L12.7469 19.2585H1.33432L0.0531365 8.31385C0.0472325 8.26769 0 7.70154 0 7.40615C0.000541825 5.44476 0.747308 3.56363 2.07655 2.17527C3.40578 0.786913 5.209 0.00464334 7.09077 0L61.7269 0C64.1505 0.00485304 66.4889 0.931635 68.3033 2.60633C70.1176 4.28103 71.2831 6.58846 71.5808 9.09538L80 80H20.0207ZM11.2886 6.86462C11.1611 5.74346 10.6268 4.71566 9.79539 3.99204C8.96395 3.26843 7.89838 2.90386 6.81725 2.97314C5.73612 3.04241 4.7214 3.54027 3.98126 4.36458C3.24112 5.1889 2.83167 6.27717 2.8369 7.40615C2.8369 7.60923 2.87232 7.99077 2.87232 8.00308L3.84354 16.2954H12.3985L11.2886 6.86462ZM68.7646 9.45846C68.5522 7.66797 67.7198 6.01992 66.424 4.82389C65.1281 3.62786 63.4578 2.96616 61.7269 2.96308H12.7321C13.4779 3.99732 13.9502 5.21744 14.1018 6.50154L22.4 77.0369H76.7882L68.7646 9.45846ZM41.1306 66.6646H68.0797V69.6277H41.1306V66.6646ZM56.7351 63.7015V60.7385H59.572V63.7015H56.7351ZM38.2967 48.8892H65.2428V51.8523H38.2967V48.8892ZM53.8982 45.9262V42.9631H56.7351V45.9262H53.8982ZM36.8768 31.1108H63.8258V34.0738H36.8768V31.1108ZM52.4782 25.1846H55.3151V28.1477H52.4782V25.1846ZM49.6413 28.1477H36.8768V25.1846H49.6413V28.1477ZM51.0613 45.9262H38.2967V42.9631H51.0613V45.9262ZM53.8982 63.7015H41.1306V60.7385H53.8982V63.7015Z" fill="black"/>
<path fill-rule="evenodd" clip-rule="evenodd" d="M29.7564 5.92627H52.6258L53.6797 14.8155H30.8014L29.7564 5.92627ZM33.3107 11.8524H50.4679L50.1166 8.88935H32.9623L33.3107 11.8524ZM32.9977 24.5724L27.4273 38.1509L20.8767 31.3078L22.8811 29.2124L26.4708 32.9601L30.3911 23.4063L32.9977 24.5724ZM27.8878 50.7386L31.8081 41.1847L34.4147 42.3509L28.8442 55.9293L22.2819 49.074L24.2893 46.9786L27.8878 50.7386ZM30.7247 68.514L34.645 58.9632L37.2516 60.1293L31.6811 73.7047L25.1483 66.8801L27.1557 64.7878L30.7247 68.514Z" fill="#0FB8EE"/>
</g>
<defs>
<clipPath id="clip0_113_86">
<rect width="80" height="80" fill="white"/>
</clipPath>
</defs>
</svg>
