<svg width="80" height="80" viewBox="0 0 80 80" fill="none" xmlns="http://www.w3.org/2000/svg">
<g clip-path="url(#clip0_113_83)">
<path fill-rule="evenodd" clip-rule="evenodd" d="M68.3636 56.0646V65.1846C68.3636 68.8308 65.9242 72.1815 62.5121 73.4923C62.5303 73.6831 62.5454 73.8769 62.5454 74.0738C62.5454 75.6407 61.9325 77.1433 60.8413 78.2512C59.7502 79.3591 58.2703 79.9815 56.7273 79.9815C55.1842 79.9815 53.7043 79.3591 52.6132 78.2512C51.5221 77.1433 50.9091 75.6407 50.9091 74.0738H8.72422C6.4068 74.0675 4.18649 73.128 2.55038 71.4616C0.914275 69.7951 -0.00402243 67.5377 -0.00305099 65.1846V8.88862C-0.00402204 6.53559 0.914295 4.27827 2.55042 2.61189C4.18655 0.94552 6.40686 0.00619281 8.72422 0L59.6363 0C61.9537 0.00619281 64.174 0.94552 65.8101 2.61189C67.4463 4.27827 68.3646 6.53559 68.3636 8.88862V15.0406C71.9028 17.125 74.8406 20.1169 76.8828 23.7168C78.925 27.3167 79.9999 31.3982 79.9999 35.5526C79.9999 39.707 78.925 43.7885 76.8828 47.3884C74.8406 50.9883 71.9028 53.9802 68.3636 56.0646ZM61.9909 70.5046C64.0363 69.5108 65.4545 67.4308 65.4545 65.1846V57.5169C63.6761 58.2533 61.8143 58.7618 59.9121 59.0308L61.9909 70.5046ZM56.7273 77.0369C57.4997 77.0346 58.2397 76.7214 58.785 76.166C59.3304 75.6105 59.6365 74.8582 59.6363 74.0738C59.6343 73.8898 59.615 73.7064 59.5788 73.5262L56.9939 59.2523C56.903 59.2523 56.8151 59.2585 56.7273 59.2585C56.6394 59.2585 56.5485 59.2523 56.4576 59.2523L53.8727 73.5292C53.8388 73.7088 53.8205 73.891 53.8182 74.0738C53.8175 74.8583 54.1235 75.611 54.669 76.1665C55.2144 76.7221 55.9547 77.0351 56.7273 77.0369ZM2.90604 65.1846C2.90523 66.7534 3.51738 68.2584 4.60815 69.3694C5.69893 70.4804 7.17923 71.1067 8.72422 71.1108H51.3515L53.5394 59.0308C48.6927 58.3355 44.1837 56.1115 40.6494 52.6731C37.1151 49.2346 34.7341 44.7555 33.8428 39.8685C32.9516 34.9814 33.5951 29.9336 35.6825 25.4381C37.7699 20.9426 41.1956 17.2267 45.4757 14.8154H2.90604V65.1846ZM65.4545 8.88862C65.4549 7.32002 64.8425 5.81532 63.7519 4.70446C62.6612 3.59359 61.1812 2.96725 59.6363 2.96277H8.72422C7.17923 2.96668 5.69888 3.59284 4.60808 4.70383C3.51728 5.81481 2.90515 7.31985 2.90604 8.88862V11.8517H56.7273C59.7197 11.8504 62.6838 12.44 65.4545 13.5877V8.88862ZM56.7273 14.8148C52.6846 14.8022 48.7293 16.008 45.362 18.2794C41.9947 20.5508 39.3669 23.7857 37.8114 27.5745C36.2559 31.3633 35.8426 35.5356 36.6238 39.563C37.405 43.5904 39.3457 47.2919 42.2 50.1988C45.0543 53.1056 48.6939 55.0871 52.658 55.8923C56.6221 56.6975 60.7323 56.2903 64.4683 54.7221C68.2043 53.1539 71.398 50.4953 73.645 47.083C75.892 43.6707 77.0912 39.658 77.0909 35.5532C77.092 30.0633 74.9489 24.7971 71.1315 20.9094C67.314 17.0217 62.1339 14.8299 56.7273 14.8148ZM61.0909 8.88862H58.1818V5.92585H61.0909V8.88862ZM52.3636 5.92585H55.2727V8.88862H52.3636V5.92585ZM46.5454 5.92585H49.4545V8.88862H46.5454V5.92585ZM18.906 50.3692H21.8151V53.3323H18.906V50.3692ZM18.906 44.4431H21.8151V47.4062H18.906V44.4431Z" fill="black"/>
<path fill-rule="evenodd" clip-rule="evenodd" d="M59.9243 35.9753C59.423 36.1993 58.9939 36.5618 58.6858 37.0215C58.3777 37.4812 58.2031 38.0196 58.1818 38.5753V41.1722H55.2728V38.5753C55.2906 37.4657 55.6162 36.3837 56.2122 35.4536C56.8083 34.5234 57.6506 33.7828 58.6425 33.3168C59.3461 32.9713 59.9457 32.4406 60.3788 31.78C60.812 31.1195 61.063 30.3531 61.1056 29.5607C61.1483 28.7682 60.981 27.9787 60.6213 27.2741C60.2616 26.5695 59.7225 25.9757 59.0601 25.5544C58.3977 25.1331 57.6363 24.8997 56.855 24.8784C56.0737 24.8572 55.301 25.0489 54.6174 25.4336C53.9338 25.8183 53.3642 26.382 52.9678 27.066C52.5715 27.75 52.3629 28.5293 52.3637 29.323C52.3632 29.6763 52.4039 30.0285 52.4849 30.3722L49.6546 31.0614C49.5218 30.4917 49.4547 29.9084 49.4546 29.323C49.458 28.0061 49.8082 26.7141 50.4688 25.5808C51.1294 24.4476 52.0765 23.5144 53.2118 22.8778C54.3472 22.2413 55.6295 21.9246 56.9259 21.9605C58.2224 21.9965 59.4858 22.3838 60.5852 23.0824C61.6846 23.781 62.58 24.7653 63.1787 25.9335C63.7774 27.1017 64.0576 28.4112 63.9902 29.7263C63.9228 31.0414 63.5102 32.3142 62.7953 33.413C62.0804 34.5117 61.0892 35.3964 59.9243 35.9753ZM5.81519 38.2091H27.6334V58.9506H5.81519V38.2091ZM8.72428 55.9876H24.7243V41.1722H8.72428V55.9876ZM5.81519 23.3968H24.7243V26.3599H5.81519V23.3968ZM5.81519 17.4697H18.9061V20.4328H5.81519V17.4697ZM58.1818 47.0983H55.2728V44.1353H58.1818V47.0983Z" fill="#0FB8EE"/>
</g>
<defs>
<clipPath id="clip0_113_83">
<rect width="80" height="80" fill="white"/>
</clipPath>
</defs>
</svg>
