<svg width="80" height="80" viewBox="0 0 80 80" fill="none" xmlns="http://www.w3.org/2000/svg">
<g clip-path="url(#clip0_113_107)">
<path fill-rule="evenodd" clip-rule="evenodd" d="M52.4128 10.1818C51.3171 10.1822 50.2662 10.6418 49.4906 11.4598C48.715 12.2778 48.2779 13.3874 48.2752 14.5454H45.5167C45.5167 12.6125 46.2433 10.7588 47.5366 9.39209C48.8298 8.02534 50.5839 7.25752 52.4128 7.25752C54.2418 7.25752 55.9958 8.02534 57.2891 9.39209C58.5823 10.7588 59.3089 12.6125 59.3089 14.5454C59.3089 20.2969 56.1289 23.2302 53.3218 25.8212C50.9275 28.0302 48.8228 29.9727 48.3669 33.4545H59.3089V36.3636H45.5167V34.909C45.5167 29.1575 48.6995 26.2212 51.5067 23.6302C54.2135 21.1333 56.5504 18.9757 56.5504 14.5454C56.5482 13.3872 56.1113 12.2773 55.3356 11.4592C54.5599 10.6411 53.5087 10.1817 52.4128 10.1818ZM67.8823 7.89388L63.9225 21.8181H70.3454V18.909H73.1038V36.3636H70.3454V24.7272H60.215L65.2415 7.06055L67.8823 7.89388ZM35.544 59.5393C35.7253 59.6276 35.9286 59.6523 36.1241 59.6098C36.3196 59.5672 36.4971 59.4597 36.6307 59.303L39.8021 55.2878C40.8345 53.9841 42.2264 53.0535 43.7834 52.626C45.3405 52.1984 46.9849 52.2953 48.4874 52.903L63.3117 58.9181C64.161 59.2653 64.8915 59.8748 65.4081 60.6672C65.9247 61.4597 66.2034 62.3983 66.2078 63.3605C66.2082 63.9669 66.0982 64.5678 65.8838 65.1302L62.6408 73.6818C61.9368 75.5522 60.7161 77.1553 59.1378 78.2822C57.5596 79.4091 55.6968 80.0077 53.792 79.9999C22.6236 79.9999 -0.000100809 56.1454 -0.000100809 23.2757C-0.00413317 21.2641 0.565498 19.298 1.6345 17.6336C2.70351 15.9693 4.22227 14.684 5.99273 13.9454L14.1017 10.5242C15.2254 10.0762 16.4702 10.1092 17.5712 10.6163C18.6722 11.1234 19.5425 12.0645 19.997 13.2393L25.6974 28.8696C26.2727 30.4547 26.3642 32.1904 25.959 33.8332C25.5538 35.476 24.6722 36.9436 23.4379 38.0302L19.63 41.3757C19.5303 41.4622 19.4498 41.5708 19.3943 41.6939C19.3388 41.817 19.3096 41.9515 19.3089 42.0878C19.3095 42.2373 19.3428 42.3846 19.4064 42.5181C23.435 51.1545 27.3576 55.2878 35.544 59.5393ZM17.8637 39.1424L21.6716 35.7939C22.4636 35.0964 23.0293 34.1547 23.2894 33.1005C23.5496 32.0463 23.4912 30.9325 23.1225 29.9151L17.4193 14.2818C17.3363 14.0516 17.2108 13.8413 17.0499 13.6631C16.889 13.4849 16.696 13.3426 16.4823 13.2443C16.2686 13.1461 16.0385 13.094 15.8055 13.091C15.5724 13.0881 15.3412 13.1344 15.1253 13.2272L10.7755 15.0636L13.9469 25.6272L11.3175 26.506L8.20635 16.1454L7.01639 16.6454C5.75808 17.1699 4.67866 18.0832 3.91904 19.266C3.15942 20.4488 2.75491 21.8462 2.75832 23.2757C2.75832 54.4575 24.2207 77.0908 53.792 77.0908C55.145 77.0963 56.4681 76.6711 57.5892 75.8707C58.7102 75.0702 59.5772 73.9315 60.0773 72.603L60.5533 71.3454L50.7268 68.0636L51.5583 65.2909L61.5827 68.6393L63.3203 64.0515C63.4082 63.8238 63.452 63.5798 63.4492 63.3339C63.4464 63.0881 63.3971 62.8453 63.3041 62.6199C63.2111 62.3945 63.0763 62.1911 62.9077 62.0217C62.7391 61.8522 62.5401 61.7201 62.3225 61.6333L47.4981 55.6212C46.5325 55.2403 45.4795 55.1825 44.4818 55.4557C43.4841 55.729 42.5901 56.3199 41.921 57.1484L38.7497 61.1666C38.2131 61.8157 37.4911 62.2626 36.6929 62.4397C35.8948 62.6168 35.0637 62.5146 34.3253 62.1484C25.6114 57.6242 21.2214 52.9969 16.9289 43.803C16.6811 43.2691 16.5517 42.6825 16.5504 42.0878C16.5506 41.525 16.6684 40.9691 16.8955 40.4599C17.1225 39.9508 17.4531 39.5009 17.8637 39.1424ZM12.2752 29.6999L14.9046 28.8212L15.6329 31.2424L13.0035 32.1212L12.2752 29.6999ZM48.5304 64.2818L47.6988 67.0545L45.4021 66.2878L46.2336 63.5151L48.5304 64.2818Z" fill="black"/>
<path fill-rule="evenodd" clip-rule="evenodd" d="M77.2416 43.6364H41.3792C40.6487 43.6359 39.9483 43.3294 39.4312 42.7842C38.9142 42.2389 38.6227 41.4992 38.6208 40.7273V39.2727H34.486C33.7578 39.2705 33.0597 38.9652 32.5429 38.423C32.0261 37.8808 31.7322 37.1453 31.7247 36.3758C31.7215 35.9909 31.7917 35.6092 31.9311 35.2536C32.0705 34.898 32.2763 34.5757 32.5362 34.3061L38.6208 27.8879V2.90909C38.6223 2.137 38.9136 1.39707 39.4307 0.851684C39.9479 0.306297 40.6486 -1.66859e-06 41.3792 0L77.2416 0C77.9722 -1.66859e-06 78.6729 0.306297 79.19 0.851684C79.7072 1.39707 79.9985 2.137 80 2.90909V40.7273C79.998 41.4992 79.7066 42.2389 79.1895 42.7842C78.6725 43.3294 77.972 43.6359 77.2416 43.6364ZM77.2416 2.90909H41.3792V29.0939L34.486 36.3636H41.3792V40.7273H77.2416V2.90909Z" fill="black"/>
</g>
<defs>
<clipPath id="clip0_113_107">
<rect width="80" height="80" fill="white"/>
</clipPath>
</defs>
</svg>
