<svg width="25" height="25" viewBox="0 0 25 25" xmlns="http://www.w3.org/2000/svg">
<g clip-path="url(#clip0_10_8)">
<path d="M0.913599 11.9871C0.909643 12.0581 0.903442 12.1292 0.903442 12.2006V21.1579C0.903442 21.8078 1.06628 22.4188 1.35085 22.9554L8.06536 16.1341L0.913599 11.9871Z" fill="black"/>
<path d="M24.0864 11.9871L16.9347 16.1341L23.6492 22.9554C23.9338 22.4188 24.0966 21.8077 24.0966 21.1579V12.2006C24.0966 12.1292 24.0904 12.0581 24.0864 11.9871Z" fill="black"/>
<path d="M12.5001 18.7055L9.27693 16.8365L2.19714 24.0275C2.87576 24.6307 3.76653 25 4.74563 25H20.2545C21.2336 25 22.1244 24.6307 22.803 24.0275L15.7232 16.8365L12.5001 18.7055Z" fill="black"/>
<path d="M12.5 17.1383L19.5785 13.0341V8.8103H5.422V13.0341L12.5 17.1383ZM8.49021 10.392H16.4719V11.4461H8.49021V10.392ZM8.49021 12.6511H12.481V13.7051H8.49021V12.6511Z" fill="black"/>
<path d="M4.06655 7.45488H20.934V12.2482L23.7499 10.6153C23.5804 10.242 23.355 9.89346 23.0713 9.58774L15.3168 1.22881C14.5897 0.445166 13.5691 0 12.5 0C11.431 0 10.4104 0.445166 9.68335 1.22881L1.92886 9.58769C1.64512 9.89346 1.41968 10.242 1.25024 10.6153L4.06655 12.2482V7.45488Z" fill="black"/>
</g>
<defs>
<clipPath id="clip0_10_8">
<rect width="25" height="25" fill="white"/>
</clipPath>
</defs>
</svg>
