<svg width="30" height="30" viewBox="0 0 30 30" fill="none" xmlns="http://www.w3.org/2000/svg">
<path fill-rule="evenodd" clip-rule="evenodd" d="M9.99996 1.66666C13.2216 1.66666 15.8333 4.27833 15.8333 7.49999C15.8333 8.47408 15.5952 9.39191 15.1725 10.1995L9.99996 19.1667L4.94722 10.417C4.44996 9.55832 4.16663 8.56263 4.16663 7.49999C4.16663 4.27833 6.7783 1.66666 9.99996 1.66666ZM9.99996 3.33332C7.69877 3.33332 5.83329 5.1988 5.83329 7.49999C5.83329 8.1617 5.98594 8.79661 6.27482 9.36979L6.41481 9.62549L9.99996 15.8333L13.6104 9.58177C13.9734 8.95492 14.1666 8.24441 14.1666 7.49999C14.1666 5.1988 12.3011 3.33332 9.99996 3.33332ZM9.99996 4.99999C11.3807 4.99999 12.5 6.11928 12.5 7.49999C12.5 8.8807 11.3807 9.99999 9.99996 9.99999C8.61925 9.99999 7.49996 8.8807 7.49996 7.49999C7.49996 6.11928 8.61925 4.99999 9.99996 4.99999ZM9.99996 6.66666C9.53972 6.66666 9.16663 7.03975 9.16663 7.49999C9.16663 7.96023 9.53972 8.33332 9.99996 8.33332C10.4602 8.33332 10.8333 7.96023 10.8333 7.49999C10.8333 7.03975 10.4602 6.66666 9.99996 6.66666Z" fill="#0FB8EE"/>
</svg>
