<svg width="24" height="24" viewBox="0 0 24 24" xmlns="http://www.w3.org/2000/svg">
<path d="M21.384 17.752C21.6177 17.9865 21.7928 18.2727 21.8953 18.5874C21.9978 18.9022 22.0247 19.2366 21.9739 19.5637C21.923 19.8908 21.7959 20.2013 21.6027 20.4701C21.4095 20.739 21.1558 20.9585 20.862 21.111C19.1831 22.0083 17.2269 22.2377 15.386 21.753C10.5 20.523 3.47699 13.5 2.24699 8.61399C1.76232 6.77305 1.99165 4.81692 2.88899 3.13799C3.04149 2.8442 3.26103 2.59044 3.52984 2.39727C3.79865 2.20411 4.10918 2.07696 4.43627 2.02613C4.76336 1.9753 5.09782 2.00221 5.41258 2.10469C5.72733 2.20717 6.01353 2.38233 6.24799 2.61599L8.33299 4.69999C8.63367 4.99765 8.83713 5.37941 8.91656 5.79497C8.996 6.21054 8.94769 6.64042 8.77799 7.02799C8.5923 7.46283 8.32862 7.86004 7.99999 8.19999C5.61599 10.584 13.417 18.385 15.8 16C16.14 15.6702 16.5376 15.4055 16.973 15.219C17.3605 15.049 17.7905 15.0006 18.2061 15.08C18.6217 15.1595 19.0035 15.3631 19.301 15.664L21.384 17.752Z" fill="black"/>
</svg>
