<svg width="40" height="40" viewBox="0 0 40 40" fill="none" xmlns="http://www.w3.org/2000/svg">
<path fill-rule="evenodd" clip-rule="evenodd" d="M22.0943 5.9537C21.7168 5.57636 21.2453 5.29526 20.7169 5.14807H20.7133L20.7113 5.14628H20.7075H20.7058L20.7039 5.1444H20.7019L20.6983 5.1426H20.6964H20.6945L20.6908 5.14065C20.4718 5.08221 20.2436 5.04636 20.0078 5.0369H20.002H19.9964H19.9945L19.9889 5.0351H19.9813H19.9757H19.9681H19.9623H19.9567H19.9547H19.9491H19.9415H19.9359H19.9283H19.9208H19.915H19.9075L19.9018 5.03315H19.8943H19.8886H19.8811H19.8753H19.8678H19.8602H19.8546H19.847L19.8414 5.0351H19.8336H19.8261H19.8205H19.813H19.7999H19.7941H19.7923H19.7865H19.779H19.7733H19.7658H19.7601L19.7525 5.0369H19.745H19.7393H19.7317H19.7261H19.7185L19.6789 5.04073H19.6733H19.6658L19.6336 5.04253H19.6261C18.86 5.10292 18.1695 5.43878 17.6564 5.95378C17.0884 6.52175 16.7376 7.30464 16.7376 8.17253C16.7376 9.03846 17.0884 9.82339 17.6564 10.3912C18.2243 10.9572 19.0073 11.31 19.875 11.31C20.7411 11.31 21.5259 10.9572 22.0938 10.3912C22.6617 9.82331 23.0126 9.03846 23.0126 8.17253C23.013 7.30456 22.6621 6.52167 22.0943 5.9537ZM20.8207 7.22534C20.5793 6.98386 20.2454 6.83292 19.8754 6.83292C19.5058 6.83292 19.1698 6.98393 18.9284 7.22534C18.6868 7.4669 18.5378 7.80261 18.5378 8.17245C18.5378 8.54034 18.6868 8.8762 18.9284 9.11768C19.1698 9.35917 19.5057 9.51003 19.8754 9.51003C20.2453 9.51003 20.5793 9.35909 20.8207 9.11768C21.0622 8.8762 21.2132 8.54034 21.2132 8.17245C21.2132 7.80261 21.0622 7.4669 20.8207 7.22534ZM19.8754 6.37073C20.3718 6.37073 20.8226 6.5726 21.1471 6.89714C21.4754 7.22534 21.6772 7.6744 21.6772 8.17245C21.6772 8.6687 21.4754 9.11956 21.149 9.44409C20.8225 9.77042 20.3717 9.97417 19.8754 9.97417C19.3773 9.97417 18.9283 9.77042 18.6019 9.44589C18.2755 9.11948 18.0736 8.66862 18.0736 8.17237C18.0736 7.67432 18.2754 7.22526 18.6 6.89886C18.9285 6.57261 19.3774 6.37073 19.8754 6.37073ZM19.2151 4.6312C19.3529 4.60471 19.4925 4.58768 19.6358 4.57839H19.6434L19.7095 4.57456H19.719L19.7246 4.57268H19.7321H19.7359H19.7396H19.7471H19.7547H19.7622L19.7699 4.57081H19.7775H19.7811H19.785H19.7925H19.8001H19.8076H19.8152H19.8228H19.8284H19.8303H19.8379H19.8454H19.8529H19.8605H19.8681H19.8756H19.8832H19.8908H19.8965H19.904H19.9116H19.9191H19.9211H19.9267H19.9343H19.9418H19.9493H19.9569H19.9644H19.9683H19.97H19.9776L19.9851 4.57268H19.9927H20H20.0076H20.0133H20.0151H20.0227L20.0303 4.57456H20.0378H20.0454L20.1114 4.57839H20.119C20.2585 4.58768 20.3981 4.60471 20.534 4.6312V2.68987C20.534 2.5087 20.4605 2.34456 20.3397 2.22385C20.2209 2.10503 20.0549 2.03143 19.8756 2.03143C19.6945 2.03143 19.5285 2.10495 19.4097 2.22385C19.2908 2.34456 19.2153 2.5087 19.2153 2.68987V4.6312H19.2151ZM32.0068 15.8003V15.0796H29.607V15.8003H32.0068ZM29.607 30.2333H30.5748V17.6001C30.5748 17.4738 30.6786 17.3681 30.8069 17.3681C30.9352 17.3681 31.039 17.4738 31.039 17.6001V30.2333H32.0069V16.2644H29.6071V30.2333H29.607ZM32.0068 30.6974H29.607V32.0559L30.8068 34.5821L32.0068 32.0559V30.6974H32.0068ZM29.988 12.3665H31.6276C31.8333 12.3665 32.0029 12.5325 32.0068 12.7363V12.7457V12.7551V14.6155H29.607V12.7551V12.7457V12.7363C29.6126 12.5325 29.7804 12.3665 29.988 12.3665ZM27.0147 19.2113H26.3562V19.8698H26.6788H26.6864H26.6919H27.0147V19.2113ZM26.1242 18.7473H27.2468C27.3751 18.7473 27.4788 18.8529 27.4788 18.9794V20.1019C27.4788 20.2303 27.3751 20.334 27.2468 20.334H26.9129C26.8977 20.8378 26.8279 21.3302 26.7091 21.8018C26.5771 22.3339 26.3826 22.8414 26.1374 23.3169L25.9507 22.6245C26.0771 22.3245 26.1808 22.0132 26.26 21.6924C26.3694 21.2566 26.4337 20.802 26.4487 20.334H26.1243C25.9959 20.334 25.8922 20.2303 25.8922 20.1019V18.9794C25.8921 18.8528 25.9958 18.7473 26.1242 18.7473ZM13.4551 19.2113H12.7967V19.8698H13.1193H13.125H13.1307H13.4551V19.2113ZM12.5646 18.7473H13.6872C13.8136 18.7473 13.9193 18.8529 13.9193 18.9794V20.1019C13.9193 20.2303 13.8136 20.334 13.6872 20.334H13.3608C13.3778 20.7868 13.4382 21.2244 13.54 21.6452C13.6116 21.9453 13.7042 22.2376 13.8174 22.5188L13.6268 23.2263C13.3967 22.7641 13.2154 22.2698 13.091 21.7528C12.9797 21.2944 12.9136 20.8189 12.8968 20.3341H12.5646C12.4364 20.3341 12.3326 20.2303 12.3326 20.102V18.9795C12.3326 18.8528 12.4365 18.7473 12.5646 18.7473ZM9.94028 37.9687C9.81192 37.9687 9.70817 37.8649 9.70817 37.7365C9.70817 37.6082 9.812 37.5045 9.94028 37.5045H25.3072C25.4336 37.5045 25.5393 37.6082 25.5393 37.7365C25.5393 37.8649 25.4336 37.9687 25.3072 37.9687H9.94028ZM18.0304 37.0839C17.902 37.0839 17.7983 36.98 17.7983 36.8517C17.7983 36.7234 17.902 36.6196 18.0304 36.6196H30.1805C30.3089 36.6196 30.4126 36.7234 30.4126 36.8517C30.4126 36.98 30.3089 37.0839 30.1805 37.0839H18.0304ZM31.4238 37.0839C31.2955 37.0839 31.1918 36.98 31.1918 36.8517C31.1918 36.7234 31.2955 36.6196 31.4238 36.6196H32.9425C33.0709 36.6196 33.1747 36.7234 33.1747 36.8517C33.1747 36.98 33.0709 37.0839 32.9425 37.0839H31.4238ZM7.05739 37.1103C6.92903 37.1103 6.82544 37.0064 6.82544 36.8781C6.82544 36.7499 6.92911 36.646 7.05739 36.646H12.8136C12.942 36.646 13.0458 36.7499 13.0458 36.8781C13.0458 37.0064 12.942 37.1103 12.8136 37.1103H7.05739ZM19.7491 30.1163C19.7491 30.2031 19.8076 30.2956 19.8812 30.3238C20.0358 30.4012 20.2133 30.2842 20.2133 30.1163V29.6521C20.2133 29.5655 20.1566 29.473 20.083 29.4447C19.9284 29.3674 19.7491 29.4843 19.7491 29.6521V30.1163ZM19.7491 31.971C19.7491 32.0577 19.8076 32.1502 19.8812 32.1785C20.0358 32.2558 20.2133 32.1389 20.2133 31.971V31.5069C20.2133 31.4201 20.1566 31.3276 20.083 31.2993C19.9284 31.2221 19.7491 31.3389 19.7491 31.5069V31.971ZM19.7491 33.8256C19.7491 33.9123 19.8076 34.0048 19.8812 34.033C20.0358 34.1104 20.2133 33.9934 20.2133 33.8256V33.3614C20.2133 33.2747 20.1566 33.1822 20.083 33.1539C19.9284 33.0766 19.7491 33.1935 19.7491 33.3614V33.8256ZM19.7491 20.5132C19.7491 20.6018 19.8076 20.6924 19.8812 20.7226C20.0358 20.7999 20.2133 20.6811 20.2133 20.5132V20.051C20.2133 19.9622 20.1566 19.8717 20.083 19.8415C19.9284 19.7641 19.7491 19.8829 19.7491 20.051V20.5132ZM19.7491 22.3678C19.7491 22.4565 19.8076 22.5471 19.8812 22.5772C20.0358 22.6546 20.2133 22.5358 20.2133 22.3678V21.9056C20.2133 21.8169 20.1566 21.7264 20.083 21.6961C19.9284 21.6189 19.7491 21.7376 19.7491 21.9056V22.3678ZM19.7491 24.2224C19.7491 24.311 19.8076 24.4017 19.8812 24.4318C20.0358 24.5092 20.2133 24.3903 20.2133 24.2224V23.7583C20.2133 23.6715 20.1566 23.5809 20.083 23.5508C19.9284 23.4735 19.7491 23.5922 19.7491 23.7583V24.2224ZM20.2133 25.7336V25.6128C20.2133 25.526 20.1566 25.4335 20.083 25.4053C19.9284 25.328 19.7491 25.445 19.7491 25.6128V25.7336H19.0661C18.9378 25.7336 18.834 25.8374 18.834 25.9656V26.5638C18.3736 26.4864 17.9286 26.3637 17.5078 26.1977C17.1454 26.0543 16.6267 25.7675 16.1984 25.4996L16.0738 25.9656C16.4983 26.226 16.9833 26.4882 17.3379 26.6278C17.8133 26.8146 18.3152 26.9524 18.834 27.0317V27.7977C18.834 27.926 18.9377 28.0297 19.0661 28.0297H19.749V28.2618C19.749 28.3505 19.8075 28.4411 19.8811 28.4713C20.0358 28.5486 20.2132 28.4297 20.2132 28.2618V28.0297H20.898C21.0264 28.0297 21.1301 27.926 21.1301 27.7977V27.0071C21.6094 26.9221 22.0717 26.7882 22.5131 26.6127C22.8168 26.4901 23.2677 26.2486 23.6771 26.0053L23.5545 25.5411C23.1375 25.7939 22.6526 26.0581 22.3415 26.1827C21.9546 26.3373 21.5489 26.4562 21.1301 26.5373V25.9656C21.1301 25.8374 21.0264 25.7336 20.898 25.7336H20.2133ZM19.9642 26.1977C19.9756 26.1995 19.9868 26.1995 19.9983 26.1977H20.6661V27.5674H20C19.9886 27.5655 19.9772 27.5655 19.9661 27.5674H19.2982V26.8373V26.8297V26.1976L19.9642 26.1977ZM20.2133 18.1963C20.2133 18.1077 20.1566 18.0171 20.083 17.9869C19.9284 17.9114 19.7491 18.0284 19.7491 18.1963V18.6604C19.7491 18.7472 19.8076 18.8397 19.8812 18.8679C20.0358 18.9453 20.2133 18.8283 20.2133 18.6604V18.1963ZM27.8768 34.5991C27.909 34.7217 27.8372 34.8462 27.7146 34.8782C27.5938 34.9085 27.4693 34.8367 27.4372 34.716L26.7769 32.2199C26.6751 32.2332 26.5714 32.235 26.4693 32.2237C26.0958 32.1785 25.745 31.9351 25.6147 31.4408L24.0883 25.7524L23.9639 25.2826L20.3358 11.7439C21.0925 11.6477 21.7754 11.3157 22.3111 10.8251L27.6863 30.886C27.8183 31.3803 27.6373 31.7653 27.3354 31.9916C27.2958 32.0217 27.2524 32.05 27.209 32.0746L27.8768 34.5991ZM12.4212 34.6971C12.3911 34.8179 12.2666 34.8914 12.1439 34.8594C12.0233 34.8273 11.9515 34.7028 11.9836 34.5821L12.6307 32.1331C12.4421 32.0426 12.276 31.8954 12.1628 31.6992L12.1572 31.6897C12.025 31.4539 11.9797 31.1672 12.0553 30.886L17.4322 10.8175C17.9661 11.3099 18.6492 11.6439 19.4057 11.7421L15.7908 25.2298L15.6644 25.7034L14.1268 31.4407V31.4446C14.0493 31.7275 13.8646 31.9539 13.6268 32.0917C13.4532 32.1916 13.2608 32.2389 13.074 32.235L12.4212 34.6971ZM8.74614 32.1218C8.87255 32.1218 8.9781 32.2256 8.9781 32.3539C8.9781 32.4803 8.87255 32.586 8.74614 32.586H6.88583V34.4444H10.1987V13.7627H6.88583V15.621H8.74614C8.87255 15.621 8.9781 15.7248 8.9781 15.8532C8.9781 15.9814 8.87255 16.0852 8.74614 16.0852H6.88583V17.6832H8.04794C8.17622 17.6832 8.28005 17.7889 8.28005 17.9153C8.28005 18.0436 8.17622 18.1474 8.04794 18.1474H6.88583V19.7473H8.74614C8.87255 19.7473 8.9781 19.851 8.9781 19.9774C8.9781 20.1057 8.87255 20.2095 8.74614 20.2095H6.88583V21.8094H8.04794C8.17622 21.8094 8.28005 21.9132 8.28005 22.0414C8.28005 22.1698 8.17622 22.2735 8.04794 22.2735H6.88583V23.8716H8.74614C8.87255 23.8716 8.9781 23.9753 8.9781 24.1037C8.9781 24.2319 8.87255 24.3357 8.74614 24.3357H6.88583V25.9337H8.04794C8.17622 25.9337 8.28005 26.0374 8.28005 26.1658C8.28005 26.2942 8.17622 26.3979 8.04794 26.3979H6.88583V27.9959H8.74614C8.87255 27.9959 8.9781 28.1016 8.9781 28.2279C8.9781 28.3563 8.87255 28.46 8.74614 28.46H6.88583V30.0599H8.04794C8.17622 30.0599 8.28005 30.1637 8.28005 30.2901C8.28005 30.4183 8.17622 30.5221 8.04794 30.5221H6.88583V32.1221H8.74614V32.1218Z" fill="black" fill-opacity="0.6"/>
</svg>
