<svg width="40" height="40" viewBox="0 0 40 40" fill="none" xmlns="http://www.w3.org/2000/svg">
<path d="M30.9437 4.375H26.25C26.25 4.2125 26.25 4.10625 26.25 4.06875V2.81875C26.25 2.25625 25.7062 1.875 24.925 1.875H15.075C14.2937 1.875 13.75 2.25625 13.75 2.80625V4.05625C13.75 4.09375 13.75 4.2 13.75 4.3625H9.05623C8.76596 4.36576 8.47919 4.42627 8.21235 4.54056C7.94551 4.65485 7.70385 4.82068 7.50122 5.02854C7.29859 5.2364 7.13896 5.4822 7.0315 5.75186C6.92404 6.02153 6.87085 6.30974 6.87498 6.6V35.9C6.86998 36.4841 7.09679 37.0463 7.50568 37.4634C7.91457 37.8805 8.47218 38.1184 9.05623 38.125H30.9312C31.2215 38.1234 31.5086 38.0645 31.776 37.9517C32.0435 37.8389 32.2861 37.6745 32.4899 37.4678C32.6936 37.2611 32.8547 37.0162 32.9636 36.7472C33.0726 36.4781 33.1275 36.1903 33.125 35.9V6.6C33.13 6.01593 32.9032 5.45371 32.4943 5.03662C32.0854 4.61953 31.5278 4.3816 30.9437 4.375ZM15 3.125H25V4.0625C24.9251 5.42423 24.7728 6.78059 24.5437 8.125H15.4562C15.2275 6.78264 15.0752 5.42838 15 4.06875V3.125ZM31.25 32.425C31.25 32.9422 31.0445 33.4382 30.6788 33.8039C30.3131 34.1696 29.8172 34.375 29.3 34.375H10.7C10.1828 34.375 9.68682 34.1696 9.32112 33.8039C8.95543 33.4382 8.74998 32.9422 8.74998 32.425V8.2C8.74998 7.68283 8.95543 7.18684 9.32112 6.82114C9.68682 6.45545 10.1828 6.25 10.7 6.25H13.925C13.925 6.35 13.925 6.44375 13.925 6.54375C14.1937 8.7 14.375 9.375 15.075 9.375H24.925C25.6187 9.375 25.8062 8.7 26.0437 6.54375C26.0437 6.44375 26.0437 6.35 26.0437 6.25H29.2687C29.5274 6.24585 29.7844 6.29323 30.0246 6.38937C30.2648 6.48551 30.4834 6.62849 30.6678 6.80997C30.8522 6.99146 30.9987 7.20783 31.0986 7.44648C31.1986 7.68512 31.25 7.94127 31.25 8.2V32.425Z" fill="black" fill-opacity="0.6"/>
<path d="M22.9562 3.75H17.0438C16.575 3.75 16.25 3.94375 16.25 4.21875V4.84375C16.25 4.91875 16.3 5.53125 16.375 6.09375C16.5188 7.175 16.6313 7.5125 17.0438 7.5125H22.9562C23.3687 7.5125 23.4812 7.175 23.625 6.09375C23.7 5.54375 23.75 4.93125 23.75 4.84375V4.21875C23.75 3.94375 23.425 3.75 22.9562 3.75Z" fill="black" fill-opacity="0.6"/>
<path d="M15.625 23.75H14.375V30.625H15.625V23.75Z" fill="black" fill-opacity="0.6"/>
<path d="M13.125 25.625H11.875V30.625H13.125V25.625Z" fill="black" fill-opacity="0.6"/>
<path d="M20.625 20.625H19.375V30.625H20.625V20.625Z" fill="black" fill-opacity="0.6"/>
<path d="M18.125 21.875H16.875V30.625H18.125V21.875Z" fill="black" fill-opacity="0.6"/>
<path d="M29.3 7.5H26.25V8.44375C26.25 8.99375 25.7063 9.375 24.925 9.375H15.075C14.2938 9.375 13.75 8.99375 13.75 8.44375V7.5H10.7C10.5143 7.5 10.3363 7.57375 10.205 7.70503C10.0738 7.8363 10 8.01435 10 8.2V32.425C10 32.6107 10.0738 32.7887 10.205 32.92C10.3363 33.0512 10.5143 33.125 10.7 33.125H29.3C29.4857 33.125 29.6637 33.0512 29.795 32.92C29.9262 32.7887 30 32.6107 30 32.425V8.2C30 8.01435 29.9262 7.8363 29.795 7.70503C29.6637 7.57375 29.4857 7.5 29.3 7.5ZM28.75 31.875H10.625V20C10.625 19.8342 10.6908 19.6753 10.8081 19.5581C10.9253 19.4408 11.0842 19.375 11.25 19.375C11.4158 19.375 11.5747 19.4408 11.6919 19.5581C11.8092 19.6753 11.875 19.8342 11.875 20V24.375H13.125V22.5H15.625V20.625H18.125V19.375H21.875V20H25V23.125H28.125V30.625H28.75C28.9158 30.625 29.0747 30.6908 29.1919 30.8081C29.3092 30.9253 29.375 31.0842 29.375 31.25C29.375 31.4158 29.3092 31.5747 29.1919 31.6919C29.0747 31.8092 28.9158 31.875 28.75 31.875ZM28.75 16.875H25C24.8342 16.875 24.6753 16.8092 24.5581 16.6919C24.4408 16.5747 24.375 16.4158 24.375 16.25C24.375 16.4158 24.3092 16.5747 24.1919 16.6919C24.0747 16.8092 23.9158 16.875 23.75 16.875H11.25C11.0842 16.875 10.9253 16.8092 10.8081 16.6919C10.6908 16.5747 10.625 16.4158 10.625 16.25C10.625 16.0842 10.6908 15.9253 10.8081 15.8081C10.9253 15.6908 11.0842 15.625 11.25 15.625H23.75C23.9158 15.625 24.0747 15.6908 24.1919 15.8081C24.3092 15.9253 24.375 16.0842 24.375 16.25C24.375 16.0842 24.4408 15.9253 24.5581 15.8081C24.6753 15.6908 24.8342 15.625 25 15.625H28.75C28.9158 15.625 29.0747 15.6908 29.1919 15.8081C29.3092 15.9253 29.375 16.0842 29.375 16.25C29.375 16.4158 29.3092 16.5747 29.1919 16.6919C29.0747 16.8092 28.9158 16.875 28.75 16.875ZM28.75 14.375H16.25C16.0842 14.375 15.9253 14.3092 15.8081 14.1919C15.6908 14.0747 15.625 13.9158 15.625 13.75C15.625 13.9158 15.5592 14.0747 15.4419 14.1919C15.3247 14.3092 15.1658 14.375 15 14.375H11.25C11.0842 14.375 10.9253 14.3092 10.8081 14.1919C10.6908 14.0747 10.625 13.9158 10.625 13.75C10.625 13.5842 10.6908 13.4253 10.8081 13.3081C10.9253 13.1908 11.0842 13.125 11.25 13.125H15C15.1658 13.125 15.3247 13.1908 15.4419 13.3081C15.5592 13.4253 15.625 13.5842 15.625 13.75C15.625 13.5842 15.6908 13.4253 15.8081 13.3081C15.9253 13.1908 16.0842 13.125 16.25 13.125H28.75C28.9158 13.125 29.0747 13.1908 29.1919 13.3081C29.3092 13.4253 29.375 13.5842 29.375 13.75C29.375 13.9158 29.3092 14.0747 29.1919 14.1919C29.0747 14.3092 28.9158 14.375 28.75 14.375ZM28.75 11.875H11.25C11.0842 11.875 10.9253 11.8092 10.8081 11.6919C10.6908 11.5747 10.625 11.4158 10.625 11.25C10.625 11.0842 10.6908 10.9253 10.8081 10.8081C10.9253 10.6908 11.0842 10.625 11.25 10.625H28.75C28.9158 10.625 29.0747 10.6908 29.1919 10.8081C29.3092 10.9253 29.375 11.0842 29.375 11.25C29.375 11.4158 29.3092 11.5747 29.1919 11.6919C29.0747 11.8092 28.9158 11.875 28.75 11.875Z" fill="black" fill-opacity="0.6"/>
<path d="M26.875 24.375H25.625V30.625H26.875V24.375Z" fill="black" fill-opacity="0.6"/>
<path d="M23.75 21.25H22.5V30.625H23.75V21.25Z" fill="black" fill-opacity="0.6"/>
</svg>
