<svg width="40" height="40" viewBox="0 0 40 40" fill="none" xmlns="http://www.w3.org/2000/svg">
<g clip-path="url(#clip0_11_85)">
<path d="M39.6213 1.92567L35.2463 0.0506732C35.0538 -0.0318268 34.8319 -0.0130768 34.6563 0.103173C34.4806 0.218798 34.375 0.415048 34.375 0.625048V4.37505V18.75H23.125V14.375C23.125 12.6519 21.6744 11.25 19.9513 11.25H16.25V9.37505H19.3263C21.0494 9.37505 22.5 7.97317 22.5 6.25005V0.625048C22.5 0.280048 22.1719 4.81613e-05 21.8263 4.81613e-05H19.3263C18.9806 4.81613e-05 18.75 0.280048 18.75 0.625048V5.62505H15.6938C16.0144 5.00005 16.2013 4.43317 16.2013 3.75005C16.2013 1.68192 14.5194 4.81613e-05 12.4513 4.81613e-05C10.3831 4.81613e-05 8.70125 1.68192 8.70125 3.75005C8.70125 4.5588 8.96125 5.3063 9.39812 5.91942L5.91563 9.40192C5.32563 9.99255 5 10.7769 5 11.6119C5 12.4463 5.32563 13.2313 5.91563 13.8213L8.21 16.1163C8.3275 16.2338 8.48563 16.2994 8.65188 16.2994C8.81813 16.2994 9.00125 16.2332 9.11812 16.1163L10 15.2588V24.375C10 24.72 10.2306 25 10.5763 25H10.6412C10.2444 25.625 10 26.1688 10 26.875C10 27.5813 10.2444 28.125 10.6412 28.75H8.125C6.40188 28.75 5 30.1519 5 31.875C5 32.5813 5.24438 33.125 5.64125 33.75H3.125C1.40188 33.75 0 35.1519 0 36.875C0 38.5982 1.40188 40 3.125 40H20.625C20.8619 40 21.0781 39.8663 21.1838 39.6544C21.2894 39.4425 21.2669 39.1894 21.1244 39C20.2462 37.8288 20.2013 36.25 20.9675 35H25.625C25.8619 35 26.0781 34.8663 26.1838 34.6544C26.2894 34.4425 26.2669 34.1894 26.1244 34C25.2462 32.8282 25.2013 31.25 25.9675 30H30.625C30.8619 30 31.0781 29.8663 31.1838 29.6544C31.2894 29.4425 31.2669 29.1894 31.1244 29C30.2462 27.8288 30.2013 26.25 30.9675 25H35.625C35.8619 25 36.0781 24.8663 36.1838 24.6544C36.2894 24.4425 36.2669 24.1894 36.1244 24C35.1862 22.7488 35.1862 21.0013 36.1244 19.75C36.2662 19.5607 36.2894 19.3069 36.1838 19.0957C36.0781 18.8838 35.8619 18.75 35.625 18.75V4.78692L39.6213 3.07442C39.8513 2.9763 40 2.75005 40 2.50005C40 2.25005 39.8513 2.0238 39.6213 1.92567ZM12.4513 1.25005C13.83 1.25005 14.9513 2.3713 14.9513 3.75005C14.9513 5.1288 13.83 6.25005 12.4513 6.25005C11.0725 6.25005 9.95125 5.1288 9.95125 3.75005C9.95125 2.37192 11.0725 1.25005 12.4513 1.25005ZM10 12.34L9.27188 11.6119L10 10.8838V12.34ZM10.1344 8.93317L7.8975 11.17C7.78 11.2875 7.71438 11.4463 7.71438 11.6119C7.71438 11.7775 7.78 11.9363 7.8975 12.0538L9.64312 13.7994L8.65188 14.79L6.79937 12.9375C6.445 12.5832 6.25 12.1125 6.25 11.6119C6.25 11.1113 6.445 10.64 6.79937 10.2857L10.2819 6.80317C10.895 7.24005 11.6425 7.50005 12.4513 7.50005C13.2156 7.50005 13.9263 7.50005 14.52 6.87505H19.3263C19.6719 6.87505 20 6.59505 20 6.25005V1.25005H21.25V6.25005C21.25 7.2838 20.36 8.12505 19.3263 8.12505H15.5763C15.2306 8.12505 15 8.40505 15 8.75005V11.875C15 12.22 15.2306 12.5 15.5763 12.5H19.9513C20.985 12.5 21.875 13.3413 21.875 14.375V18.75H20V15C20 14.655 19.6719 14.375 19.3263 14.375H13.7013C13.3556 14.375 13.125 14.655 13.125 15V23.75H11.25V9.37505C11.25 9.12255 11.0737 8.89442 10.84 8.79755C10.6062 8.70067 10.3131 8.75442 10.1344 8.93317ZM15.6412 23.75H14.375V15.625H18.75V18.75H18.125C16.4019 18.75 15 20.1519 15 21.875C15 22.5813 15.2444 23.125 15.6412 23.75ZM3.125 38.75C2.09125 38.75 1.25 37.9088 1.25 36.875C1.25 35.8413 2.09125 35 3.125 35H8.125H19.5506C19.3813 35.625 19.2738 35.625 19.2181 36.25H4.375V37.5H19.2188C19.2744 38.125 19.3812 38.125 19.5512 38.75H3.125ZM20.625 33.75H8.125C7.09125 33.75 6.25 32.9088 6.25 31.875C6.25 30.8413 7.09125 30 8.125 30H13.125H24.5506C24.3812 30.625 24.2738 30.625 24.2181 31.25H14.375V32.5H24.2188C24.2744 33.125 24.3813 33.125 24.5513 33.75H20.625ZM29.2188 27.5C29.2744 28.125 29.3812 28.125 29.5506 28.75H25.625H13.125C12.0912 28.75 11.25 27.9088 11.25 26.875C11.25 25.8413 12.0912 25 13.125 25H13.7013H18.125H29.5506C29.3812 25.625 29.2737 25.625 29.2188 26.25H23.75V27.5H29.2188ZM34.2188 22.5C34.2744 23.125 34.3812 23.125 34.5506 23.75H30.625H18.125C17.0912 23.75 16.25 22.9088 16.25 21.875C16.25 20.8413 17.0912 20 18.125 20H19.3263H22.4513H34.5506C34.3812 20.625 34.2737 20.625 34.2188 21.25H24.375V22.5H34.2188ZM35.625 3.42755V1.57317L37.7881 2.50005L35.625 3.42755Z" fill="black"/>
<path d="M3.75 4.375H2.5V5.625H3.75V4.375Z" fill="black"/>
<path d="M6.25 4.375H5V5.625H6.25V4.375Z" fill="black"/>
<path d="M1.25 4.375H0V5.625H1.25V4.375Z" fill="black"/>
<path d="M32.0263 3.76875C30.7088 3.43938 29.6856 2.41563 29.3556 1.09812C29.2869 0.820625 29.0369 0.625 28.75 0.625C28.4631 0.625 28.2131 0.82 28.1437 1.09812C27.8144 2.41563 26.7912 3.43875 25.4737 3.76875C25.195 3.83813 25 4.08813 25 4.375C25 4.66187 25.195 4.91187 25.4737 4.98125C26.7912 5.31062 27.8144 6.33437 28.1437 7.65125C28.2131 7.93 28.4631 8.125 28.75 8.125C29.0369 8.125 29.2869 7.93 29.3563 7.65188C29.6856 6.33437 30.7088 5.31125 32.0269 4.98188C32.305 4.91188 32.5 4.66187 32.5 4.375C32.5 4.08813 32.305 3.83813 32.0263 3.76875ZM28.75 5.92375C28.3569 5.2975 27.8275 4.76813 27.2012 4.375C27.8275 3.98187 28.3569 3.45312 28.75 2.82687C29.1431 3.45312 29.6725 3.98187 30.2981 4.375C29.6725 4.76813 29.1431 5.2975 28.75 5.92375Z" fill="black"/>
<path d="M22.5 26.25H15V27.5H22.5V26.25Z" fill="black"/>
<path d="M13.125 31.25H11.875V32.5H13.125V31.25Z" fill="black"/>
<path d="M10.625 31.25H9.375V32.5H10.625V31.25Z" fill="black"/>
<path d="M23.125 21.25H21.875V22.5H23.125V21.25Z" fill="black"/>
<path d="M20.625 21.25H19.375V22.5H20.625V21.25Z" fill="black"/>
</g>
<defs>
<clipPath id="clip0_11_85">
<rect width="40" height="40" fill="white"/>
</clipPath>
</defs>
</svg>
