<svg width="20" height="20" viewBox="0 0 20 20" fill="none" xmlns="http://www.w3.org/2000/svg">
<g clip-path="url(#clip0_111_40)">
<path d="M0.730781 9.58984C0.727617 9.64668 0.722656 9.70352 0.722656 9.7607V16.9265C0.722656 17.4464 0.85293 17.9353 1.08059 18.3645L6.45219 12.9075L0.730781 9.58984Z" fill="#0FB8EE"/>
<path d="M19.269 9.58984L13.5476 12.9075L18.9192 18.3645C19.1469 17.9353 19.2771 17.4464 19.2771 16.9265V9.7607C19.2771 9.70352 19.2722 9.64668 19.269 9.58984Z" fill="#0FB8EE"/>
<path d="M9.99991 14.9644L7.4214 13.4692L1.75757 19.2221C2.30046 19.7046 3.01308 20 3.79636 20H16.2035C16.9867 20 17.6994 19.7046 18.2423 19.2221L12.5784 13.4692L9.99991 14.9644Z" fill="#0FB8EE"/>
<path d="M9.99982 13.7108L15.6626 10.4274V7.04834H4.3374V10.4274L9.99982 13.7108ZM6.79197 8.31373H13.1773V9.15701H6.79197V8.31373ZM6.79197 10.121H9.98463V10.9642H6.79197V10.121Z" fill="#0FB8EE"/>
<path d="M3.25305 5.96391H16.747V9.79859L18.9997 8.49227C18.8641 8.19363 18.6838 7.91477 18.4568 7.6702L12.2532 0.983047C11.6716 0.356133 10.8551 0 9.99984 0C9.14461 0 8.32816 0.356133 7.74648 0.983047L1.54289 7.67016C1.3159 7.91477 1.13555 8.19359 1 8.49223L3.25305 9.79855V5.96391Z" fill="#0FB8EE"/>
</g>
<defs>
<clipPath id="clip0_111_40">
<rect width="20" height="20" fill="white"/>
</clipPath>
</defs>
</svg>
