<svg width="20" height="20" viewBox="0 0 20 20" fill="none" xmlns="http://www.w3.org/2000/svg">
<path fill-rule="evenodd" clip-rule="evenodd" d="M10.0001 1.6665C13.2217 1.6665 15.8334 4.27818 15.8334 7.49984C15.8334 8.47393 15.5953 9.39176 15.1726 10.1994L10.0001 19.1665L4.94734 10.4168C4.45008 9.55817 4.16675 8.56248 4.16675 7.49984C4.16675 4.27818 6.77842 1.6665 10.0001 1.6665ZM10.0001 3.33317C7.69889 3.33317 5.83341 5.19865 5.83341 7.49984C5.83341 8.16155 5.98607 8.79646 6.27494 9.36964L6.41493 9.62534L10.0001 15.8332L13.6105 9.58162C13.9735 8.95477 14.1667 8.24426 14.1667 7.49984C14.1667 5.19865 12.3013 3.33317 10.0001 3.33317ZM10.0001 4.99984C11.3808 4.99984 12.5001 6.11913 12.5001 7.49984C12.5001 8.88055 11.3808 9.99984 10.0001 9.99984C8.61937 9.99984 7.50008 8.88055 7.50008 7.49984C7.50008 6.11913 8.61937 4.99984 10.0001 4.99984ZM10.0001 6.6665C9.53984 6.6665 9.16675 7.0396 9.16675 7.49984C9.16675 7.96007 9.53984 8.33317 10.0001 8.33317C10.4603 8.33317 10.8334 7.96007 10.8334 7.49984C10.8334 7.0396 10.4603 6.6665 10.0001 6.6665Z" fill="#0FB8EE"/>
</svg>
