<svg width="20" height="20" viewBox="0 0 20 20" fill="none" xmlns="http://www.w3.org/2000/svg">
<path d="M17.8199 14.7932C18.0147 14.9886 18.1606 15.2271 18.246 15.4894C18.3314 15.7517 18.3538 16.0304 18.3115 16.303C18.2691 16.5755 18.1632 16.8343 18.0022 17.0583C17.8412 17.2823 17.6298 17.4653 17.3849 17.5924C15.9858 18.3402 14.3557 18.5313 12.8216 18.1274C8.74993 17.1024 2.89743 11.2499 1.87243 7.1782C1.46854 5.64408 1.65965 4.01397 2.40743 2.61487C2.53451 2.37004 2.71747 2.15857 2.94147 1.9976C3.16548 1.83663 3.42425 1.73068 3.69683 1.68832C3.9694 1.64596 4.24812 1.66838 4.51042 1.75378C4.77271 1.83918 5.01121 1.98515 5.2066 2.17987L6.9441 3.91653C7.19466 4.16458 7.36421 4.48271 7.43041 4.82902C7.49661 5.17532 7.45635 5.53356 7.31493 5.85653C7.16019 6.2189 6.94046 6.5499 6.6666 6.8332C4.67993 8.81987 11.1808 15.3207 13.1666 13.3332C13.4499 13.0584 13.7812 12.8378 14.1441 12.6824C14.467 12.5407 14.8253 12.5003 15.1717 12.5665C15.518 12.6328 15.8362 12.8024 16.0841 13.0532L17.8199 14.7932Z" fill="#0FB8EE"/>
</svg>
